<svg width="32" height="16" viewBox="0 0 32 16" fill="none" xmlns="http://www.w3.org/2000/svg">
<rect width="32" height="16" rx="8" fill="url(#paint0_linear_493_32383)"/>
<path d="M8.31641 9.66992L8.76562 13.0195H7.61816L7.33984 10.915H5.61621L5.33301 13.0195H4.19531L4.63477 9.68945L5.62598 3.40039H7.33008L8.31641 9.66992ZM7.19336 9.80176L6.47559 4.36719L5.75781 9.80176H7.19336ZM9.5957 13.0195V3.40039H10.7236V11.9111H13.0039V13.0195H9.5957ZM13.834 13.0195V3.40039H14.9619V11.9111H17.2422V13.0195H13.834ZM21.7832 11.2471C21.7832 12.5329 21.1484 13.1774 19.8789 13.1807C18.6094 13.1807 17.9746 12.5361 17.9746 11.2471V5.17285C17.9746 3.88704 18.6094 3.24414 19.8789 3.24414C21.1484 3.24414 21.7832 3.88704 21.7832 5.17285V6.35938H20.6553V5.17285C20.6553 4.62923 20.3981 4.35579 19.8838 4.35254H19.874C19.3597 4.35254 19.1025 4.62598 19.1025 5.17285V11.2471C19.1025 11.7939 19.3613 12.0674 19.8789 12.0674C20.3965 12.0674 20.6553 11.7939 20.6553 11.2471V10.0605H21.7832V11.2471ZM26.5879 9.66992L27.0371 13.0195H25.8896L25.6113 10.915H23.8877L23.6045 13.0195H22.4668L22.9062 9.68945L23.8975 3.40039H25.6016L26.5879 9.66992ZM25.4648 9.80176L24.7471 4.36719L24.0293 9.80176H25.4648Z" fill="white"/>
<defs>
<linearGradient id="paint0_linear_493_32383" x1="16" y1="0" x2="16" y2="16" gradientUnits="userSpaceOnUse">
<stop stop-color="#9635E8"/>
<stop offset="0.9993" stop-color="#6826E4" stop-opacity="0.985929"/>
<stop offset="0.9994" stop-color="#541FE3" stop-opacity="0.98"/>
<stop offset="0.9995" stop-color="#7D56E6"/>
<stop offset="0.9996" stop-color="#541FE3"/>
<stop offset="0.9997" stop-color="#541FE3" stop-opacity="0.01"/>
<stop offset="0.9998" stop-color="#541FE3" stop-opacity="0.01"/>
<stop offset="0.9999" stop-color="#541FE3" stop-opacity="0.01"/>
<stop offset="1" stop-color="#541FE3" stop-opacity="0"/>
<stop offset="1" stop-color="#541FE3" stop-opacity="0.98"/>
</linearGradient>
</defs>
</svg>
