<svg width="33" height="16" viewBox="0 0 33 16" fill="none" xmlns="http://www.w3.org/2000/svg">
<rect x="0.933105" width="32" height="16" rx="8" fill="#D2D2D2"/>
<path d="M9.24956 9.66992L9.69878 13.0195H8.55132L8.27299 10.915H6.54936L6.26616 13.0195H5.12846L5.56792 9.68945L6.55913 3.40039H8.26323L9.24956 9.66992ZM8.12651 9.80176L7.40874 4.36719L6.69096 9.80176H8.12651ZM10.5289 13.0195V3.40039H11.6568V11.9111H13.9371V13.0195H10.5289ZM14.7671 13.0195V3.40039H15.8951V11.9111H18.1753V13.0195H14.7671ZM22.7164 11.2471C22.7164 12.5329 22.0816 13.1774 20.8121 13.1807C19.5425 13.1807 18.9078 12.5361 18.9078 11.2471V5.17285C18.9078 3.88704 19.5425 3.24414 20.8121 3.24414C22.0816 3.24414 22.7164 3.88704 22.7164 5.17285V6.35938H21.5884V5.17285C21.5884 4.62923 21.3313 4.35579 20.8169 4.35254H20.8072C20.2929 4.35254 20.0357 4.62598 20.0357 5.17285V11.2471C20.0357 11.7939 20.2945 12.0674 20.8121 12.0674C21.3296 12.0674 21.5884 11.7939 21.5884 11.2471V10.0605H22.7164V11.2471ZM27.521 9.66992L27.9703 13.0195H26.8228L26.5445 10.915H24.8208L24.5376 13.0195H23.3999L23.8394 9.68945L24.8306 3.40039H26.5347L27.521 9.66992ZM26.398 9.80176L25.6802 4.36719L24.9624 9.80176H26.398Z" fill="white"/>
</svg>
