<svg width="42" height="42" viewBox="0 0 42 42" fill="none" xmlns="http://www.w3.org/2000/svg">
<circle cx="21" cy="21" r="21" fill="#702DFF"/>
<path fill-rule="evenodd" clip-rule="evenodd" d="M21 9C21.2652 9 21.5196 9.10536 21.7071 9.29289C21.8946 9.48043 22 9.73478 22 10V32C22 32.2652 21.8946 32.5196 21.7071 32.7071C21.5196 32.8946 21.2652 33 21 33C20.7348 33 20.4804 32.8946 20.2929 32.7071C20.1054 32.5196 20 32.2652 20 32V10C20 9.73478 20.1054 9.48043 20.2929 9.29289C20.4804 9.10536 20.7348 9 21 9ZM17 13C17.2652 13 17.5196 13.1054 17.7071 13.2929C17.8946 13.4804 18 13.7348 18 14V28C18 28.2652 17.8946 28.5196 17.7071 28.7071C17.5196 28.8946 17.2652 29 17 29C16.7348 29 16.4804 28.8946 16.2929 28.7071C16.1054 28.5196 16 28.2652 16 28V14C16 13.7348 16.1054 13.4804 16.2929 13.2929C16.4804 13.1054 16.7348 13 17 13ZM25 13C25.2652 13 25.5196 13.1054 25.7071 13.2929C25.8946 13.4804 26 13.7348 26 14V28C26 28.2652 25.8946 28.5196 25.7071 28.7071C25.5196 28.8946 25.2652 29 25 29C24.7348 29 24.4804 28.8946 24.2929 28.7071C24.1054 28.5196 24 28.2652 24 28V14C24 13.7348 24.1054 13.4804 24.2929 13.2929C24.4804 13.1054 24.7348 13 25 13ZM13 16C13.2652 16 13.5196 16.1054 13.7071 16.2929C13.8946 16.4804 14 16.7348 14 17V25C14 25.2652 13.8946 25.5196 13.7071 25.7071C13.5196 25.8946 13.2652 26 13 26C12.7348 26 12.4804 25.8946 12.2929 25.7071C12.1054 25.5196 12 25.2652 12 25V17C12 16.7348 12.1054 16.4804 12.2929 16.2929C12.4804 16.1054 12.7348 16 13 16ZM29 16C29.2652 16 29.5196 16.1054 29.7071 16.2929C29.8946 16.4804 30 16.7348 30 17V25C30 25.2652 29.8946 25.5196 29.7071 25.7071C29.5196 25.8946 29.2652 26 29 26C28.7348 26 28.4804 25.8946 28.2929 25.7071C28.1054 25.5196 28 25.2652 28 25V17C28 16.7348 28.1054 16.4804 28.2929 16.2929C28.4804 16.1054 28.7348 16 29 16ZM9 18C9.26522 18 9.51957 18.1054 9.70711 18.2929C9.89464 18.4804 10 18.7348 10 19V23C10 23.2652 9.89464 23.5196 9.70711 23.7071C9.51957 23.8946 9.26522 24 9 24C8.73478 24 8.48043 23.8946 8.29289 23.7071C8.10536 23.5196 8 23.2652 8 23V19C8 18.7348 8.10536 18.4804 8.29289 18.2929C8.48043 18.1054 8.73478 18 9 18ZM33 18C33.2652 18 33.5196 18.1054 33.7071 18.2929C33.8946 18.4804 34 18.7348 34 19V23C34 23.2652 33.8946 23.5196 33.7071 23.7071C33.5196 23.8946 33.2652 24 33 24C32.7348 24 32.4804 23.8946 32.2929 23.7071C32.1054 23.5196 32 23.2652 32 23V19C32 18.7348 32.1054 18.4804 32.2929 18.2929C32.4804 18.1054 32.7348 18 33 18Z" fill="white"/>
</svg>
