<svg width="26" height="28" viewBox="0 0 26 28" fill="none" xmlns="http://www.w3.org/2000/svg">
<g clip-path="url(#clip0_198_13305)">
<path d="M17.2151 14.2971L15.9291 9.35588C15.7862 8.8219 15.2973 8.44586 14.7483 8.44586H10.8224C10.2659 8.44586 9.78455 8.8219 9.64165 9.35588L8.35559 14.2971H9.95L10.5291 22.3443C10.5667 22.8557 10.9954 23.2544 11.5068 23.2544H14.0263C14.5377 23.2544 14.9664 22.8557 15.004 22.3443L15.6207 14.2895H17.2226L17.2151 14.2971Z" stroke="#3B3C39" stroke-width="1.8" stroke-linejoin="round"/>
<path d="M12.7854 5.83615C14.1894 5.83615 15.3275 4.69804 15.3275 3.29411C15.3275 1.89018 14.1894 0.752075 12.7854 0.752075C11.3815 0.752075 10.2434 1.89018 10.2434 3.29411C10.2434 4.69804 11.3815 5.83615 12.7854 5.83615Z" stroke="#3B3C39" stroke-width="1.8" stroke-miterlimit="10"/>
<path d="M18.2004 19.5842C22.1262 20.2536 24.8187 21.6224 24.8187 23.2017C24.8187 25.4354 19.4338 27.2479 12.7854 27.2479C6.13698 27.2479 0.752075 25.4354 0.752075 23.2017C0.752075 21.5998 3.52726 20.2084 7.55089 19.5541" stroke="#3B3C39" stroke-width="1.8" stroke-linecap="round" stroke-linejoin="round"/>
</g>
<defs>
<clipPath id="clip0_198_13305">
<rect width="25.5708" height="28" fill="white"/>
</clipPath>
</defs>
</svg>
