<svg width="31" height="31" viewBox="0 0 31 31" fill="none" xmlns="http://www.w3.org/2000/svg">
<g clip-path="url(#clip0_349_13143)">
<path fill-rule="evenodd" clip-rule="evenodd" d="M2.73218 15.2857C2.73218 18.7667 4.11499 22.1051 6.5764 24.5665C9.03782 27.0279 12.3762 28.4107 15.8572 28.4107C19.3381 28.4107 22.6765 27.0279 25.138 24.5665C27.5994 22.1051 28.9822 18.7667 28.9822 15.2857C28.9822 11.8048 27.5994 8.46636 25.138 6.00494C22.6765 3.54353 19.3381 2.16072 15.8572 2.16072C12.3762 2.16072 9.03782 3.54353 6.5764 6.00494C4.11499 8.46636 2.73218 11.8048 2.73218 15.2857ZM30.8572 15.2857C30.8572 19.264 29.2768 23.0793 26.4638 25.8923C23.6507 28.7054 19.8354 30.2857 15.8572 30.2857C11.8789 30.2857 8.06362 28.7054 5.25058 25.8923C2.43753 23.0793 0.857178 19.264 0.857178 15.2857C0.857178 11.3075 2.43753 7.49217 5.25058 4.67912C8.06362 1.86607 11.8789 0.285721 15.8572 0.285721C19.8354 0.285721 23.6507 1.86607 26.4638 4.67912C29.2768 7.49217 30.8572 11.3075 30.8572 15.2857ZM16.7947 8.72322C16.7947 8.47458 16.6959 8.23612 16.5201 8.06031C16.3443 7.88449 16.1058 7.78572 15.8572 7.78572C15.6085 7.78572 15.3701 7.88449 15.1943 8.06031C15.0184 8.23612 14.9197 8.47458 14.9197 8.72322V19.5851L10.8959 15.5595C10.7199 15.3834 10.4811 15.2845 10.2322 15.2845C9.98322 15.2845 9.74446 15.3834 9.56843 15.5595C9.39239 15.7355 9.29349 15.9743 9.29349 16.2232C9.29349 16.4722 9.39239 16.7109 9.56843 16.887L15.1934 22.512C15.2805 22.5993 15.384 22.6685 15.4979 22.7158C15.6118 22.7631 15.7339 22.7874 15.8572 22.7874C15.9805 22.7874 16.1026 22.7631 16.2165 22.7158C16.3304 22.6685 16.4338 22.5993 16.5209 22.512L22.1459 16.887C22.322 16.7109 22.4209 16.4722 22.4209 16.2232C22.4209 15.9743 22.322 15.7355 22.1459 15.5595C21.9699 15.3834 21.7311 15.2845 21.4822 15.2845C21.2332 15.2845 20.9945 15.3834 20.8184 15.5595L16.7947 19.5851V8.72322Z" fill="white"/>
</g>
<defs>
<clipPath id="clip0_349_13143">
<rect width="30" height="30" fill="white" transform="translate(0.857178 0.285721)"/>
</clipPath>
</defs>
</svg>
