<svg width="12" height="12" viewBox="0 0 12 12" fill="none" xmlns="http://www.w3.org/2000/svg">
<g clip-path="url(#clip0_17_15615)">
<path d="M2.0085 8.9205C2.08635 8.99865 2.146 9.093 2.18321 9.19684C2.22041 9.30068 2.23426 9.41145 2.22375 9.52125C2.17104 10.0294 2.07111 10.5316 1.92525 11.0212C2.9715 10.779 3.6105 10.4985 3.90075 10.3515C4.06538 10.2681 4.25497 10.2484 4.43325 10.296C4.94433 10.4323 5.47107 10.5008 6 10.5C8.997 10.5 11.25 8.39475 11.25 6C11.25 3.606 8.997 1.5 6 1.5C3.003 1.5 0.75 3.606 0.75 6C0.75 7.101 1.21275 8.1225 2.0085 8.9205ZM1.63875 11.8492C1.46105 11.8845 1.28278 11.9167 1.104 11.946C0.954 11.97 0.84 11.814 0.89925 11.6745C0.965844 11.5174 1.02688 11.3581 1.08225 11.1967L1.0845 11.1892C1.2705 10.6492 1.422 10.0283 1.4775 9.45C0.55725 8.5275 0 7.32 0 6C0 3.1005 2.6865 0.75 6 0.75C9.3135 0.75 12 3.1005 12 6C12 8.8995 9.3135 11.25 6 11.25C5.40574 11.2508 4.81394 11.1736 4.23975 11.0205C3.84975 11.2178 3.0105 11.577 1.63875 11.8492Z" fill="#D2D2D2"/>
<path d="M3 4.125C3 4.02554 3.03951 3.93016 3.10984 3.85984C3.18016 3.78951 3.27554 3.75 3.375 3.75H8.625C8.72446 3.75 8.81984 3.78951 8.89017 3.85984C8.96049 3.93016 9 4.02554 9 4.125C9 4.22446 8.96049 4.31984 8.89017 4.39016C8.81984 4.46049 8.72446 4.5 8.625 4.5H3.375C3.27554 4.5 3.18016 4.46049 3.10984 4.39016C3.03951 4.31984 3 4.22446 3 4.125ZM3 6C3 5.90054 3.03951 5.80516 3.10984 5.73484C3.18016 5.66451 3.27554 5.625 3.375 5.625H8.625C8.72446 5.625 8.81984 5.66451 8.89017 5.73484C8.96049 5.80516 9 5.90054 9 6C9 6.09946 8.96049 6.19484 8.89017 6.26517C8.81984 6.33549 8.72446 6.375 8.625 6.375H3.375C3.27554 6.375 3.18016 6.33549 3.10984 6.26517C3.03951 6.19484 3 6.09946 3 6ZM3 7.875C3 7.77554 3.03951 7.68016 3.10984 7.60983C3.18016 7.53951 3.27554 7.5 3.375 7.5H6.375C6.47446 7.5 6.56984 7.53951 6.64017 7.60983C6.71049 7.68016 6.75 7.77554 6.75 7.875C6.75 7.97446 6.71049 8.06984 6.64017 8.14017C6.56984 8.21049 6.47446 8.25 6.375 8.25H3.375C3.27554 8.25 3.18016 8.21049 3.10984 8.14017C3.03951 8.06984 3 7.97446 3 7.875Z" fill="#D2D2D2"/>
</g>
<defs>
<clipPath id="clip0_17_15615">
<rect width="12" height="12" fill="white"/>
</clipPath>
</defs>
</svg>
