<svg width="39" height="38" viewBox="0 0 39 38" fill="none" xmlns="http://www.w3.org/2000/svg">
<path d="M28.659 11.788C28.7738 11.9044 28.8383 12.0619 28.8383 12.2262C28.8383 12.3905 28.7738 12.5481 28.659 12.6644L27.3773 13.9604L24.9196 11.4777L26.2013 10.1817C26.3165 10.0654 26.4728 10 26.6357 10C26.7986 10 26.9549 10.0654 27.0701 10.1817L28.659 11.7868V11.788ZM26.5085 14.8367L24.0508 12.3541L15.6785 20.8125C15.6108 20.8808 15.5599 20.9642 15.5298 21.0558L14.5405 24.0524C14.5226 24.1071 14.52 24.1657 14.5332 24.2217C14.5463 24.2777 14.5746 24.3289 14.6149 24.3696C14.6552 24.4103 14.7059 24.4389 14.7613 24.4521C14.8168 24.4654 14.8748 24.4628 14.9289 24.4447L17.8953 23.4454C17.986 23.4153 18.0685 23.3643 18.1362 23.2965L26.5085 14.8367Z" fill="#28AA7F"/>
<path fill-rule="evenodd" clip-rule="evenodd" d="M10.8381 26.1379C10.8381 26.6318 11.0323 27.1054 11.378 27.4546C11.7237 27.8038 12.1926 27.9999 12.6814 27.9999H26.199C26.6879 27.9999 27.1567 27.8038 27.5024 27.4546C27.8481 27.1054 28.0423 26.6318 28.0423 26.1379V18.6899C28.0423 18.5253 27.9776 18.3674 27.8624 18.251C27.7471 18.1346 27.5908 18.0692 27.4279 18.0692C27.2649 18.0692 27.1086 18.1346 26.9934 18.251C26.8782 18.3674 26.8134 18.5253 26.8134 18.6899V26.1379C26.8134 26.3025 26.7487 26.4604 26.6335 26.5768C26.5183 26.6932 26.362 26.7586 26.199 26.7586H12.6814C12.5185 26.7586 12.3622 26.6932 12.247 26.5768C12.1317 26.4604 12.067 26.3025 12.067 26.1379V12.4832C12.067 12.3186 12.1317 12.1607 12.247 12.0443C12.3622 11.9279 12.5185 11.8626 12.6814 11.8626H20.6691C20.8321 11.8626 20.9883 11.7972 21.1036 11.6808C21.2188 11.5644 21.2835 11.4065 21.2835 11.2419C21.2835 11.0773 21.2188 10.9194 21.1036 10.803C20.9883 10.6866 20.8321 10.6212 20.6691 10.6212H12.6814C12.1926 10.6212 11.7237 10.8174 11.378 11.1666C11.0323 11.5158 10.8381 11.9894 10.8381 12.4832V26.1379Z" fill="#28AA7F"/>
</svg>
