<svg width="16" height="16" viewBox="0 0 16 16" fill="none" xmlns="http://www.w3.org/2000/svg">
<path d="M13.7273 11.1818H4.81818V2.27273H13.7273M13.7273 1H4.81818C4.48063 1 4.15691 1.13409 3.91823 1.37277C3.67954 1.61146 3.54545 1.93518 3.54545 2.27273V11.1818C3.54545 11.5194 3.67954 11.8431 3.91823 12.0818C4.15691 12.3205 4.48063 12.4545 4.81818 12.4545H13.7273C14.0648 12.4545 14.3885 12.3205 14.6272 12.0818C14.8659 11.8431 15 11.5194 15 11.1818V2.27273C15 1.93518 14.8659 1.61146 14.6272 1.37277C14.3885 1.13409 14.0648 1 13.7273 1ZM2.27273 4.18182C2.27273 3.86364 1.95455 3.54545 1.63636 3.54545C1.31818 3.54545 1 3.86364 1 4.18182V13.7273C1 14.0648 1.13409 14.3885 1.37277 14.6272C1.61146 14.8659 1.93518 15 2.27273 15H11.8182C12.1696 15 12.4545 14.7151 12.4545 14.3636C12.4545 14.0122 12.1705 13.7273 11.819 13.7273C10.6336 13.7273 8.16187 13.7273 7.68182 13.7273C7.04545 13.7273 4.77296 13.7273 2.90909 13.7273C2.59091 13.7273 2.27273 13.4091 2.27273 13.0909M10.52 6.91182L8.77 9.16455L7.52273 7.66273L5.77273 9.90909H12.7727L10.52 6.91182Z" fill="#3B3C39"/>
</svg>
