<svg width="48" height="48" viewBox="0 0 48 48" fill="none" xmlns="http://www.w3.org/2000/svg">
<path d="M15.219 17.281C15.1492 17.2113 15.0939 17.1285 15.0562 17.0374C15.0184 16.9463 14.999 16.8486 14.999 16.75C14.999 16.6514 15.0184 16.5537 15.0562 16.4626C15.0939 16.3715 15.1492 16.2887 15.219 16.219C15.2887 16.1493 15.3715 16.094 15.4626 16.0562C15.5537 16.0185 15.6514 15.9991 15.75 15.9991C15.8486 15.9991 15.9462 16.0185 16.0373 16.0562C16.1285 16.094 16.2112 16.1493 16.281 16.219L24 23.9395L31.719 16.219C31.7887 16.1493 31.8715 16.094 31.9626 16.0562C32.0537 16.0185 32.1514 15.9991 32.25 15.9991C32.3486 15.9991 32.4462 16.0185 32.5373 16.0562C32.6285 16.094 32.7112 16.1493 32.781 16.219C32.8507 16.2887 32.906 16.3715 32.9438 16.4626C32.9815 16.5537 33.0009 16.6514 33.0009 16.75C33.0009 16.8486 32.9815 16.9463 32.9438 17.0374C32.906 17.1285 32.8507 17.2113 32.781 17.281L25.0605 25L32.781 32.719C32.8507 32.7887 32.906 32.8715 32.9438 32.9626C32.9815 33.0537 33.0009 33.1514 33.0009 33.25C33.0009 33.3486 32.9815 33.4463 32.9438 33.5374C32.906 33.6285 32.8507 33.7113 32.781 33.781C32.7112 33.8507 32.6285 33.906 32.5373 33.9438C32.4462 33.9815 32.3486 34.0009 32.25 34.0009C32.1514 34.0009 32.0537 33.9815 31.9626 33.9438C31.8715 33.906 31.7887 33.8507 31.719 33.781L24 26.0605L16.281 33.781C16.2112 33.8507 16.1285 33.906 16.0373 33.9438C15.9462 33.9815 15.8486 34.0009 15.75 34.0009C15.6514 34.0009 15.5537 33.9815 15.4626 33.9438C15.3715 33.906 15.2887 33.8507 15.219 33.781C15.1492 33.7113 15.0939 33.6285 15.0562 33.5374C15.0184 33.4463 14.999 33.3486 14.999 33.25C14.999 33.1514 15.0184 33.0537 15.0562 32.9626C15.0939 32.8715 15.1492 32.7887 15.219 32.719L22.9395 25L15.219 17.281Z" fill="white"/>
</svg>
