<svg width="12" height="12" viewBox="0 0 12 12" fill="none" xmlns="http://www.w3.org/2000/svg">
<g clip-path="url(#clip0_1_3346)">
<path d="M7.63688 6.54663H6.54688V7.63663H7.63688V6.54663Z" fill="white"/>
<path d="M8.72672 9.81672H9.81672V8.72672V7.63672H8.72672H7.63672V8.72672H8.72672V9.81672Z" fill="white"/>
<path d="M7.63688 8.72668H6.54688V9.81668H7.63688V8.72668Z" fill="white"/>
<path d="M10.9099 9.81668V10.91H9.81656H8.72656V12H9.81656H10.9099H11.9999V10.91V9.81668V8.72668H10.9099V9.81668Z" fill="white"/>
<path d="M3.27311 6.54663H2.18311V9.81996H5.45644V6.54663H3.27311ZM4.36311 8.72996H3.27311V7.63996H4.36311V8.72996Z" fill="white"/>
<path d="M1.09 10.91V9.81668V8.72668H0V9.81668V10.91V12H1.09H2.18333H3.27333V10.91H2.18333H1.09Z" fill="white"/>
<path d="M8.72679 5.45335H9.81679V2.18335H6.54346V5.45668H8.72679V5.45335ZM7.63679 3.27002H8.72679V4.36002H7.63679V3.27002Z" fill="white"/>
<path d="M10.9099 0H9.81656H8.72656V1.09H9.81656H10.9099V2.18333V3.27333H11.9999V2.18333V1.09V0H10.9099Z" fill="white"/>
<path d="M3.27311 2.18335H2.18311V5.45668H5.45644V2.18335H3.27311ZM4.36311 4.36668H3.27311V3.27668H4.36311V4.36668Z" fill="white"/>
<path d="M1.09 2.18333V1.09H2.18333H3.27333V0H2.18333H1.09H0V1.09V2.18333V3.27333H1.09V2.18333Z" fill="white"/>
</g>
<defs>
<clipPath id="clip0_1_3346">
<rect width="12" height="12" fill="white"/>
</clipPath>
</defs>
</svg>
