<svg width="24" height="24" viewBox="0 0 24 24" fill="none" xmlns="http://www.w3.org/2000/svg">
<path fill-rule="evenodd" clip-rule="evenodd" d="M5.32855 8.64598C5.37732 8.59941 5.43526 8.56247 5.49904 8.53727C5.56282 8.51206 5.6312 8.49908 5.70025 8.49908C5.76931 8.49908 5.83769 8.51206 5.90147 8.53727C5.96525 8.56247 6.02319 8.59941 6.07195 8.64598L12.0003 14.293L17.9286 8.64598C17.9774 8.59949 18.0353 8.56261 18.0991 8.53745C18.1629 8.5123 18.2312 8.49935 18.3003 8.49935C18.3693 8.49935 18.4376 8.5123 18.5014 8.53745C18.5652 8.56261 18.6231 8.59949 18.672 8.64598C18.7208 8.69247 18.7595 8.74766 18.7859 8.80839C18.8123 8.86913 18.8259 8.93423 18.8259 8.99998C18.8259 9.06572 18.8123 9.13082 18.7859 9.19156C18.7595 9.2523 18.7208 9.30749 18.672 9.35398L12.372 15.354C12.3232 15.4005 12.2653 15.4375 12.2015 15.4627C12.1377 15.4879 12.0693 15.5009 12.0003 15.5009C11.9312 15.5009 11.8628 15.4879 11.799 15.4627C11.7353 15.4375 11.6773 15.4005 11.6286 15.354L5.32855 9.35398C5.27966 9.30753 5.24087 9.25236 5.21441 9.19161C5.18794 9.13087 5.17432 9.06575 5.17432 8.99998C5.17432 8.93421 5.18794 8.86909 5.21441 8.80834C5.24087 8.7476 5.27966 8.69242 5.32855 8.64598Z" fill="#ABABAB"/>
</svg>
