<svg width="16" height="16" viewBox="0 0 16 16" fill="none" xmlns="http://www.w3.org/2000/svg">
<g clip-path="url(#clip0_198_11090)">
<path d="M10.1822 8.72888H8.72888V10.1822H10.1822V8.72888Z" fill="#3B3C39"/>
<path d="M11.6356 13.0889H13.0889V11.6356V10.1823H11.6356H10.1823V11.6356H11.6356V13.0889Z" fill="#3B3C39"/>
<path d="M10.1822 11.6356H8.72888V13.0889H10.1822V11.6356Z" fill="#3B3C39"/>
<path d="M14.5466 13.0889V14.5467H13.0888H11.6355V16H13.0888H14.5466H15.9999V14.5467V13.0889V11.6356H14.5466V13.0889Z" fill="#3B3C39"/>
<path d="M4.36447 8.72888H2.91113V13.0933H7.27558V8.72888H4.36447ZM5.8178 11.64H4.36447V10.1867H5.8178V11.64Z" fill="#3B3C39"/>
<path d="M1.45333 14.5467V13.0889V11.6356H0V13.0889V14.5467V16H1.45333H2.91111H4.36444V14.5467H2.91111H1.45333Z" fill="#3B3C39"/>
<path d="M11.6356 7.27113H13.0889V2.91113H8.72449V7.27558H11.6356V7.27113ZM10.1823 4.36002H11.6356V5.81335H10.1823V4.36002Z" fill="#3B3C39"/>
<path d="M14.5466 0H13.0888H11.6355V1.45333H13.0888H14.5466V2.91111V4.36444H15.9999V2.91111V1.45333V0H14.5466Z" fill="#3B3C39"/>
<path d="M4.36447 2.91113H2.91113V7.27558H7.27558V2.91113H4.36447ZM5.8178 5.82224H4.36447V4.36891H5.8178V5.82224Z" fill="#3B3C39"/>
<path d="M1.45333 2.91111V1.45333H2.91111H4.36444V0H2.91111H1.45333H0V1.45333V2.91111V4.36444H1.45333V2.91111Z" fill="#3B3C39"/>
</g>
<defs>
<clipPath id="clip0_198_11090">
<rect width="16" height="16" fill="white"/>
</clipPath>
</defs>
</svg>
