<svg width="20" height="19" viewBox="0 0 20 19" fill="none" xmlns="http://www.w3.org/2000/svg">
<g clip-path="url(#clip0_588_35698)">
<path d="M12.9688 10.0625C12.9688 10.8084 12.656 11.5238 12.0992 12.0512C11.5425 12.5787 10.7874 12.875 10 12.875C9.21264 12.875 8.45753 12.5787 7.90078 12.0512C7.34403 11.5238 7.03125 10.8084 7.03125 10.0625C7.03125 9.31658 7.34403 8.60121 7.90078 8.07376C8.45753 7.54632 9.21264 7.25 10 7.25C10.7874 7.25 11.5425 7.54632 12.0992 8.07376C12.656 8.60121 12.9688 9.31658 12.9688 10.0625Z" fill="#702DFF"/>
<path d="M2.875 5C2.24511 5 1.64102 5.23705 1.19562 5.65901C0.750223 6.08097 0.5 6.65326 0.5 7.25L0.5 14C0.5 14.5967 0.750223 15.169 1.19562 15.591C1.64102 16.0129 2.24511 16.25 2.875 16.25H17.125C17.7549 16.25 18.359 16.0129 18.8044 15.591C19.2498 15.169 19.5 14.5967 19.5 14V7.25C19.5 6.65326 19.2498 6.08097 18.8044 5.65901C18.359 5.23705 17.7549 5 17.125 5H15.7332C15.1034 4.99987 14.4994 4.76274 14.0541 4.34075L13.0709 3.40925C12.6256 2.98726 12.0216 2.75013 11.3918 2.75H8.60825C7.97841 2.75013 7.37442 2.98726 6.92912 3.40925L5.94588 4.34075C5.50058 4.76274 4.89659 4.99987 4.26675 5H2.875ZM3.46875 7.25C3.31128 7.25 3.16026 7.19074 3.04891 7.08525C2.93756 6.97976 2.875 6.83668 2.875 6.6875C2.875 6.53832 2.93756 6.39524 3.04891 6.28975C3.16026 6.18426 3.31128 6.125 3.46875 6.125C3.62622 6.125 3.77724 6.18426 3.88859 6.28975C3.99994 6.39524 4.0625 6.53832 4.0625 6.6875C4.0625 6.83668 3.99994 6.97976 3.88859 7.08525C3.77724 7.19074 3.62622 7.25 3.46875 7.25ZM14.1562 10.0625C14.1562 11.1068 13.7184 12.1083 12.9389 12.8467C12.1595 13.5852 11.1023 14 10 14C8.89769 14 7.84054 13.5852 7.06109 12.8467C6.28164 12.1083 5.84375 11.1068 5.84375 10.0625C5.84375 9.01821 6.28164 8.01669 7.06109 7.27827C7.84054 6.53984 8.89769 6.125 10 6.125C11.1023 6.125 12.1595 6.53984 12.9389 7.27827C13.7184 8.01669 14.1562 9.01821 14.1562 10.0625Z" fill="#702DFF"/>
</g>
<defs>
<clipPath id="clip0_588_35698">
<rect x="0.5" y="0.5" width="19" height="18" fill="white"/>
</clipPath>
</defs>
</svg>
