<svg width="48" height="48" viewBox="0 0 48 48" fill="none" xmlns="http://www.w3.org/2000/svg">
<path d="M30.4255 30.1819C33.7745 30.7419 36 31.7237 36 32.8473C36 34.5891 30.6291 36 24 36C17.3709 36 12 34.5891 12 32.8473C12 31.7709 14.0545 30.8182 17.1855 30.2509" stroke="#EDEDED" stroke-width="2" stroke-linecap="round" stroke-linejoin="round"/>
<path d="M24.2258 31.9818C24.273 32.0109 24.2694 32 24.2258 31.9527C24.1821 32 24.1785 32.0146 24.2258 31.9818Z" stroke="#EDEDED" stroke-width="2" stroke-linecap="round" stroke-linejoin="round"/>
<path d="M23.801 12C19.6592 12 16.3029 15.4255 16.3029 19.6473C16.3029 21.0655 16.5283 21.8364 16.9029 23.0436C18.0156 26.6327 23.801 31.9527 23.801 31.9527C23.801 31.9527 29.5829 26.6364 30.6956 23.0618C31.0738 21.8473 31.3029 21.0727 31.3029 19.6473C31.3029 15.4255 27.9465 12 23.8047 12H23.801ZM23.801 23C21.7283 23 20.0519 21.32 20.0519 19.2509C20.0519 17.1818 21.7319 15.5018 23.801 15.5018C25.8701 15.5018 27.5501 17.1818 27.5501 19.2509C27.5501 21.32 25.8701 23 23.801 23Z" stroke="#EDEDED" stroke-width="2" stroke-linecap="round" stroke-linejoin="round"/>
</svg>
