<svg width="20" height="19" viewBox="0 0 20 19" fill="none" xmlns="http://www.w3.org/2000/svg">
<g clip-path="url(#clip0_602_30858)">
<path d="M12.9688 10.3125C12.9688 11.0584 12.656 11.7738 12.0992 12.3012C11.5425 12.8287 10.7874 13.125 10 13.125C9.21264 13.125 8.45753 12.8287 7.90078 12.3012C7.34403 11.7738 7.03125 11.0584 7.03125 10.3125C7.03125 9.56658 7.34403 8.85121 7.90078 8.32376C8.45753 7.79632 9.21264 7.5 10 7.5C10.7874 7.5 11.5425 7.79632 12.0992 8.32376C12.656 8.85121 12.9688 9.56658 12.9688 10.3125Z" fill="#28AA7F"/>
<path d="M2.875 5.25C2.24511 5.25 1.64102 5.48705 1.19562 5.90901C0.750223 6.33097 0.5 6.90326 0.5 7.5L0.5 14.25C0.5 14.8467 0.750223 15.419 1.19562 15.841C1.64102 16.2629 2.24511 16.5 2.875 16.5H17.125C17.7549 16.5 18.359 16.2629 18.8044 15.841C19.2498 15.419 19.5 14.8467 19.5 14.25V7.5C19.5 6.90326 19.2498 6.33097 18.8044 5.90901C18.359 5.48705 17.7549 5.25 17.125 5.25H15.7333C15.1034 5.24987 14.4994 5.01274 14.0541 4.59075L13.0709 3.65925C12.6256 3.23726 12.0216 3.00013 11.3917 3H8.60825C7.97841 3.00013 7.37442 3.23726 6.92913 3.65925L5.94587 4.59075C5.50058 5.01274 4.89659 5.24987 4.26675 5.25H2.875ZM3.46875 7.5C3.31128 7.5 3.16026 7.44074 3.04891 7.33525C2.93756 7.22976 2.875 7.08668 2.875 6.9375C2.875 6.78832 2.93756 6.64524 3.04891 6.53975C3.16026 6.43426 3.31128 6.375 3.46875 6.375C3.62622 6.375 3.77724 6.43426 3.88859 6.53975C3.99994 6.64524 4.0625 6.78832 4.0625 6.9375C4.0625 7.08668 3.99994 7.22976 3.88859 7.33525C3.77724 7.44074 3.62622 7.5 3.46875 7.5ZM14.1562 10.3125C14.1562 11.3568 13.7184 12.3583 12.9389 13.0967C12.1595 13.8352 11.1023 14.25 10 14.25C8.89769 14.25 7.84054 13.8352 7.06109 13.0967C6.28164 12.3583 5.84375 11.3568 5.84375 10.3125C5.84375 9.26821 6.28164 8.26669 7.06109 7.52827C7.84054 6.78984 8.89769 6.375 10 6.375C11.1023 6.375 12.1595 6.78984 12.9389 7.52827C13.7184 8.26669 14.1562 9.26821 14.1562 10.3125Z" fill="#28AA7F"/>
</g>
<defs>
<clipPath id="clip0_602_30858">
<rect x="0.5" y="0.75" width="19" height="18" fill="white"/>
</clipPath>
</defs>
</svg>
