<svg width="14" height="14" viewBox="0 0 14 14" fill="none" xmlns="http://www.w3.org/2000/svg">
<g clip-path="url(#clip0_558_36029)">
<path d="M7 13.125C5.37555 13.125 3.81763 12.4797 2.66897 11.331C1.52031 10.1824 0.875 8.62445 0.875 7C0.875 5.37555 1.52031 3.81763 2.66897 2.66897C3.81763 1.52031 5.37555 0.875 7 0.875C8.62445 0.875 10.1824 1.52031 11.331 2.66897C12.4797 3.81763 13.125 5.37555 13.125 7C13.125 8.62445 12.4797 10.1824 11.331 11.331C10.1824 12.4797 8.62445 13.125 7 13.125ZM7 14C8.85652 14 10.637 13.2625 11.9497 11.9497C13.2625 10.637 14 8.85652 14 7C14 5.14348 13.2625 3.36301 11.9497 2.05025C10.637 0.737498 8.85652 0 7 0C5.14348 0 3.36301 0.737498 2.05025 2.05025C0.737498 3.36301 0 5.14348 0 7C0 8.85652 0.737498 10.637 2.05025 11.9497C3.36301 13.2625 5.14348 14 7 14Z" fill="#3B3C39"/>
<path d="M9.93481 4.0653C9.89417 4.02456 9.8459 3.99223 9.79274 3.97018C9.73959 3.94812 9.68261 3.93677 9.62506 3.93677C9.56752 3.93677 9.51054 3.94812 9.45739 3.97018C9.40423 3.99223 9.35595 4.02456 9.31531 4.0653L4.06531 9.3153C4.02464 9.35598 3.99237 9.40427 3.97036 9.45741C3.94834 9.51056 3.93701 9.56752 3.93701 9.62505C3.93701 9.68258 3.94834 9.73954 3.97036 9.79269C3.99237 9.84583 4.02464 9.89412 4.06531 9.9348C4.14747 10.017 4.25889 10.0631 4.37506 10.0631C4.43259 10.0631 4.48955 10.0518 4.5427 10.0298C4.59585 10.0077 4.64414 9.97548 4.68481 9.9348L9.93481 4.6848C9.97556 4.64416 10.0079 4.59588 10.0299 4.54273C10.052 4.48958 10.0633 4.4326 10.0633 4.37505C10.0633 4.3175 10.052 4.26052 10.0299 4.20737C10.0079 4.15422 9.97556 4.10594 9.93481 4.0653Z" fill="#3B3C39"/>
</g>
<defs>
<clipPath id="clip0_558_36029">
<rect width="14" height="14" fill="white"/>
</clipPath>
</defs>
</svg>
