<svg width="26" height="28" viewBox="0 0 26 28" fill="none" xmlns="http://www.w3.org/2000/svg">
<g clip-path="url(#clip0_198_13351)">
<path d="M17.2152 14.2971L15.9292 9.35588C15.7863 8.8219 15.2974 8.44586 14.7484 8.44586H10.8225C10.266 8.44586 9.78467 8.8219 9.64177 9.35588L8.35571 14.2971H9.95013L10.5292 22.3443C10.5668 22.8557 10.9955 23.2544 11.5069 23.2544H14.0264C14.5378 23.2544 14.9665 22.8557 15.0041 22.3443L15.6208 14.2895H17.2228L17.2152 14.2971Z" stroke="#28AA7F" stroke-width="1.8" stroke-linejoin="round"/>
<path d="M12.7854 5.83615C14.1894 5.83615 15.3275 4.69804 15.3275 3.29411C15.3275 1.89018 14.1894 0.752075 12.7854 0.752075C11.3815 0.752075 10.2434 1.89018 10.2434 3.29411C10.2434 4.69804 11.3815 5.83615 12.7854 5.83615Z" stroke="#28AA7F" stroke-width="1.8" stroke-miterlimit="10"/>
<path d="M18.2005 19.5842C22.1264 20.2536 24.8188 21.6224 24.8188 23.2017C24.8188 25.4354 19.4339 27.2479 12.7855 27.2479C6.1371 27.2479 0.752197 25.4354 0.752197 23.2017C0.752197 21.5998 3.52738 20.2084 7.55102 19.5541" stroke="#28AA7F" stroke-width="1.8" stroke-linecap="round" stroke-linejoin="round"/>
</g>
<defs>
<clipPath id="clip0_198_13351">
<rect width="25.5708" height="28" fill="white"/>
</clipPath>
</defs>
</svg>
