<svg width="16" height="21" viewBox="0 0 16 21" fill="none" xmlns="http://www.w3.org/2000/svg">
<rect x="3.93701" y="4.39746" width="7.93316" height="7.79102" fill="white"/>
<path fill-rule="evenodd" clip-rule="evenodd" d="M0.743653 19.5641V2.52439C0.743653 1.85488 0.998051 1.21279 1.45088 0.739378C1.90372 0.265962 2.51789 0 3.15829 0L12.8168 0C13.4572 0 14.0714 0.265962 14.5242 0.739378C14.9771 1.21279 15.2315 1.85488 15.2315 2.52439V19.5641C15.2316 19.6736 15.2043 19.7814 15.1525 19.8766C15.1006 19.9719 15.026 20.0514 14.9358 20.1073C14.8457 20.1632 14.7431 20.1936 14.6383 20.1955C14.5335 20.1974 14.43 20.1708 14.3381 20.1182L7.98756 16.4957L1.63707 20.1182C1.54511 20.1708 1.44163 20.1974 1.33681 20.1955C1.232 20.1936 1.12947 20.1632 1.03931 20.1073C0.949158 20.0514 0.874483 19.9719 0.822641 19.8766C0.770798 19.7814 0.743576 19.6736 0.743653 19.5641ZM8.18074 5.17501C8.16309 5.13716 8.13562 5.10526 8.10146 5.08294C8.06731 5.06062 8.02784 5.04879 7.98756 5.04879C7.94729 5.04879 7.90782 5.06062 7.87367 5.08294C7.83951 5.10526 7.81204 5.13716 7.79439 5.17501L7.02895 6.79693C7.01363 6.82974 6.99089 6.85815 6.9627 6.8797C6.93451 6.90126 6.90172 6.9153 6.86717 6.92063L5.15278 7.18064C5.11331 7.1869 5.07629 7.20453 5.04587 7.23155C5.01545 7.25857 4.99283 7.29392 4.98055 7.33363C4.96826 7.37334 4.9668 7.41584 4.97632 7.45636C4.98585 7.49689 5.00598 7.53385 5.03446 7.56308L6.27317 8.82654C6.32388 8.87829 6.34682 8.95276 6.33475 9.02597L6.04378 10.8107C6.03722 10.8519 6.04178 10.8942 6.05695 10.9329C6.07211 10.9715 6.09729 11.005 6.12965 11.0295C6.162 11.054 6.20026 11.0686 6.24012 11.0717C6.27997 11.0747 6.31985 11.0661 6.35527 11.0467L7.88857 10.2036C7.9193 10.1868 7.95348 10.178 7.98817 10.178C8.02286 10.178 8.05703 10.1868 8.08777 10.2036L9.62107 11.0467C9.65645 11.0657 9.69618 11.0741 9.73584 11.0709C9.7755 11.0677 9.81353 11.053 9.84569 11.0286C9.87785 11.0041 9.90289 10.9708 9.91801 10.9323C9.93314 10.8939 9.93775 10.8518 9.93135 10.8107L9.63918 9.02471C9.63301 8.98884 9.63529 8.95194 9.64581 8.9172C9.65632 8.88246 9.67477 8.85091 9.69954 8.82528L10.9407 7.56182C10.9692 7.53258 10.9893 7.49563 10.9988 7.4551C11.0083 7.41457 11.0069 7.37207 10.9946 7.33237C10.9823 7.29266 10.9597 7.25731 10.9293 7.23029C10.8988 7.20327 10.8618 7.18564 10.8223 7.17938L9.10796 6.91936C9.07341 6.91404 9.04062 6.89999 9.01243 6.87844C8.98424 6.85689 8.9615 6.82848 8.94617 6.79567L8.18074 5.17501Z" fill="#15E370"/>
</svg>
