<svg width="24" height="24" viewBox="0 0 24 24" fill="none" xmlns="http://www.w3.org/2000/svg">
<path fill-rule="evenodd" clip-rule="evenodd" d="M1.47081 11.7665C1.47081 14.4971 2.55553 17.1158 4.48634 19.0466C6.41715 20.9774 9.0359 22.0621 11.7665 22.0621C14.4971 22.0621 17.1158 20.9774 19.0466 19.0466C20.9774 17.1158 22.0621 14.4971 22.0621 11.7665C22.0621 9.0359 20.9774 6.41715 19.0466 4.48634C17.1158 2.55553 14.4971 1.47081 11.7665 1.47081C9.0359 1.47081 6.41715 2.55553 4.48634 4.48634C2.55553 6.41715 1.47081 9.0359 1.47081 11.7665ZM23.533 11.7665C23.533 14.8871 22.2933 17.88 20.0866 20.0866C17.88 22.2933 14.8871 23.533 11.7665 23.533C8.64581 23.533 5.65297 22.2933 3.44632 20.0866C1.23968 17.88 0 14.8871 0 11.7665C0 8.64581 1.23968 5.65297 3.44632 3.44632C5.65297 1.23968 8.64581 0 11.7665 0C14.8871 0 17.88 1.23968 20.0866 3.44632C22.2933 5.65297 23.533 8.64581 23.533 11.7665ZM6.61864 11.0311C6.4236 11.0311 6.23655 11.1086 6.09864 11.2465C5.96072 11.3844 5.88324 11.5714 5.88324 11.7665C5.88324 11.9615 5.96072 12.1486 6.09864 12.2865C6.23655 12.4244 6.4236 12.5019 6.61864 12.5019H15.139L11.9812 15.6582C11.9128 15.7266 11.8586 15.8078 11.8216 15.8971C11.7846 15.9865 11.7656 16.0822 11.7656 16.1789C11.7656 16.2756 11.7846 16.3714 11.8216 16.4607C11.8586 16.55 11.9128 16.6312 11.9812 16.6996C12.0496 16.768 12.1308 16.8222 12.2201 16.8592C12.3094 16.8962 12.4052 16.9152 12.5019 16.9152C12.5986 16.9152 12.6943 16.8962 12.7837 16.8592C12.873 16.8222 12.9542 16.768 13.0226 16.6996L17.435 12.2871C17.5035 12.2188 17.5578 12.1377 17.5949 12.0483C17.6319 11.959 17.651 11.8632 17.651 11.7665C17.651 11.6697 17.6319 11.574 17.5949 11.4846C17.5578 11.3953 17.5035 11.3141 17.435 11.2458L13.0226 6.83338C12.9542 6.76501 12.873 6.71077 12.7837 6.67377C12.6943 6.63676 12.5986 6.61772 12.5019 6.61772C12.4052 6.61772 12.3094 6.63676 12.2201 6.67377C12.1308 6.71077 12.0496 6.76501 11.9812 6.83338C11.9128 6.90176 11.8586 6.98293 11.8216 7.07227C11.7846 7.1616 11.7656 7.25735 11.7656 7.35405C11.7656 7.45075 11.7846 7.5465 11.8216 7.63583C11.8586 7.72517 11.9128 7.80634 11.9812 7.87472L15.139 11.0311H6.61864Z" fill="white"/>
</svg>
