<svg width="48" height="48" viewBox="0 0 48 48" fill="none" xmlns="http://www.w3.org/2000/svg">
<path d="M16.017 29.0514C16.1727 29.2049 16.292 29.3903 16.3664 29.5943C16.4408 29.7983 16.4685 30.0159 16.4475 30.2316C16.3421 31.23 16.1422 32.2165 15.8505 33.1784C17.943 32.7025 19.221 32.1515 19.8015 31.8627C20.1308 31.6989 20.5099 31.6601 20.8665 31.7536C21.8887 32.0213 22.9421 32.1561 24 32.1544C29.994 32.1544 34.5 28.0185 34.5 23.3139C34.5 18.6108 29.994 14.4734 24 14.4734C18.006 14.4734 13.5 18.6108 13.5 23.3139C13.5 25.4769 14.4255 27.4837 16.017 29.0514ZM15.2775 34.8051C14.9221 34.8743 14.5656 34.9377 14.208 34.9952C13.908 35.0423 13.68 34.7358 13.7985 34.4618C13.9317 34.1533 14.0538 33.8402 14.1645 33.5232L14.169 33.5085C14.541 32.4476 14.844 31.2276 14.955 30.0916C13.1145 28.2793 12 25.9071 12 23.3139C12 17.6177 17.373 13 24 13C30.627 13 36 17.6177 36 23.3139C36 29.0101 30.627 33.6278 24 33.6278C22.8115 33.6294 21.6279 33.4778 20.4795 33.177C19.6995 33.5645 18.021 34.2702 15.2775 34.8051Z" fill="#3B3C39"/>
<path d="M18 19.6303C18 19.4349 18.079 19.2475 18.2197 19.1093C18.3603 18.9712 18.5511 18.8936 18.75 18.8936H29.25C29.4489 18.8936 29.6397 18.9712 29.7803 19.1093C29.921 19.2475 30 19.4349 30 19.6303C30 19.8257 29.921 20.013 29.7803 20.1512C29.6397 20.2894 29.4489 20.367 29.25 20.367H18.75C18.5511 20.367 18.3603 20.2894 18.2197 20.1512C18.079 20.013 18 19.8257 18 19.6303ZM18 23.3138C18 23.1184 18.079 22.931 18.2197 22.7929C18.3603 22.6547 18.5511 22.5771 18.75 22.5771H29.25C29.4489 22.5771 29.6397 22.6547 29.7803 22.7929C29.921 22.931 30 23.1184 30 23.3138C30 23.5092 29.921 23.6966 29.7803 23.8347C29.6397 23.9729 29.4489 24.0505 29.25 24.0505H18.75C18.5511 24.0505 18.3603 23.9729 18.2197 23.8347C18.079 23.6966 18 23.5092 18 23.3138ZM18 26.9973C18 26.802 18.079 26.6146 18.2197 26.4764C18.3603 26.3383 18.5511 26.2606 18.75 26.2606H24.75C24.9489 26.2606 25.1397 26.3383 25.2803 26.4764C25.421 26.6146 25.5 26.802 25.5 26.9973C25.5 27.1927 25.421 27.3801 25.2803 27.5183C25.1397 27.6564 24.9489 27.7341 24.75 27.7341H18.75C18.5511 27.7341 18.3603 27.6564 18.2197 27.5183C18.079 27.3801 18 27.1927 18 26.9973Z" fill="#3B3C39"/>
</svg>
