<svg width="8" height="14" viewBox="0 0 8 14" fill="none" xmlns="http://www.w3.org/2000/svg">
<path fill-rule="evenodd" clip-rule="evenodd" d="M1.14518 1.14543C1.19163 1.09887 1.24681 1.06192 1.30755 1.03672C1.3683 1.01151 1.43342 0.998535 1.49918 0.998535C1.56495 0.998535 1.63007 1.01151 1.69082 1.03672C1.75156 1.06192 1.80674 1.09887 1.85318 1.14543L7.85318 7.14543C7.89975 7.19187 7.93669 7.24705 7.9619 7.3078C7.9871 7.36854 8.00008 7.43366 8.00008 7.49943C8.00008 7.5652 7.9871 7.63032 7.9619 7.69106C7.93669 7.75181 7.89975 7.80698 7.85318 7.85343L1.85318 13.8534C1.7593 13.9473 1.63196 14.0001 1.49918 14.0001C1.36641 14.0001 1.23907 13.9473 1.14518 13.8534C1.0513 13.7595 0.998553 13.6322 0.998553 13.4994C0.998553 13.3667 1.0513 13.2393 1.14518 13.1454L6.79218 7.49943L1.14518 1.85343C1.09862 1.80698 1.06168 1.75181 1.03647 1.69106C1.01127 1.63032 0.998291 1.5652 0.998291 1.49943C0.998291 1.43366 1.01127 1.36854 1.03647 1.3078C1.06168 1.24705 1.09862 1.19187 1.14518 1.14543Z" fill="#666666"/>
</svg>
