<svg width="19" height="18" viewBox="0 0 19 18" fill="none" xmlns="http://www.w3.org/2000/svg">
<g clip-path="url(#clip0_1238_6757)">
<path d="M5.81445 10.125C6.26201 10.125 6.69123 9.94721 7.0077 9.63074C7.32416 9.31428 7.50195 8.88505 7.50195 8.4375C7.50195 7.98995 7.32416 7.56072 7.0077 7.24426C6.69123 6.92779 6.26201 6.75 5.81445 6.75C5.3669 6.75 4.93768 6.92779 4.62121 7.24426C4.30474 7.56072 4.12695 7.98995 4.12695 8.4375C4.12695 8.88505 4.30474 9.31428 4.62121 9.63074C4.93768 9.94721 5.3669 10.125 5.81445 10.125Z" fill="#28AA7F"/>
<path d="M16.502 14.625C16.502 15.2217 16.2649 15.794 15.8429 16.216C15.421 16.6379 14.8487 16.875 14.252 16.875H3.00195C2.40522 16.875 1.83292 16.6379 1.41096 16.216C0.989006 15.794 0.751953 15.2217 0.751953 14.625V5.625C0.751953 5.02865 0.988697 4.4567 1.41017 4.0348C1.83164 3.61291 2.40336 3.3756 2.9997 3.375C2.9997 2.77826 3.23676 2.20597 3.65871 1.78401C4.08067 1.36205 4.65297 1.125 5.2497 1.125H16.4997C17.0964 1.125 17.6687 1.36205 18.0907 1.78401C18.5126 2.20597 18.7497 2.77826 18.7497 3.375V12.375C18.7497 12.9713 18.513 13.5433 18.0915 13.9652C17.67 14.3871 17.0983 14.6244 16.502 14.625ZM16.4997 2.25H5.2497C4.95133 2.25 4.66519 2.36853 4.45421 2.5795C4.24323 2.79048 4.1247 3.07663 4.1247 3.375H14.252C14.8487 3.375 15.421 3.61205 15.8429 4.03401C16.2649 4.45597 16.502 5.02826 16.502 5.625V13.5C16.7999 13.4994 17.0855 13.3806 17.296 13.1697C17.5065 12.9588 17.6247 12.673 17.6247 12.375V3.375C17.6247 3.07663 17.5062 2.79048 17.2952 2.5795C17.0842 2.36853 16.7981 2.25 16.4997 2.25ZM3.00195 4.5C2.70358 4.5 2.41744 4.61853 2.20646 4.8295C1.99548 5.04048 1.87695 5.32663 1.87695 5.625V14.625L4.8537 11.9767C4.94565 11.8851 5.06646 11.8281 5.19563 11.8154C5.32481 11.8027 5.45441 11.8351 5.56245 11.907L8.55495 13.9016L12.7287 9.72788C12.8121 9.64437 12.9197 9.58922 13.0362 9.57025C13.1527 9.55127 13.2722 9.56942 13.3778 9.62213L15.377 11.8125V5.625C15.377 5.32663 15.2584 5.04048 15.0474 4.8295C14.8365 4.61853 14.5503 4.5 14.252 4.5H3.00195Z" fill="#28AA7F"/>
</g>
<defs>
<clipPath id="clip0_1238_6757">
<rect width="18" height="18" fill="white" transform="translate(0.75)"/>
</clipPath>
</defs>
</svg>
