<svg width="16" height="16" viewBox="0 0 16 16" fill="none" xmlns="http://www.w3.org/2000/svg">
<path d="M14.1538 2.82611H12.0231L10.9769 1.27394C10.9213 1.18907 10.8448 1.11947 10.7548 1.07159C10.6647 1.02371 10.5638 0.999096 10.4615 1.00003H5.53846C5.43619 0.999096 5.33534 1.02371 5.24525 1.07159C5.15516 1.11947 5.07874 1.18907 5.02308 1.27394L3.97692 2.82611H1.84615C1.35715 2.82811 0.888746 3.02115 0.542963 3.36317C0.19718 3.70519 0.0020249 4.1685 0 4.65219V13.1739C0.0020249 13.6576 0.19718 14.1209 0.542963 14.4629C0.888746 14.805 1.35715 14.998 1.84615 15H14.1538C14.6429 14.998 15.1113 14.805 15.457 14.4629C15.8028 14.1209 15.998 13.6576 16 13.1739V4.65219C15.998 4.1685 15.8028 3.70519 15.457 3.36317C15.1113 3.02115 14.6429 2.82811 14.1538 2.82611ZM14.7692 13.1739C14.7692 13.3354 14.7044 13.4902 14.589 13.6043C14.4736 13.7185 14.3171 13.7826 14.1538 13.7826H1.84615C1.68294 13.7826 1.52642 13.7185 1.41101 13.6043C1.2956 13.4902 1.23077 13.3354 1.23077 13.1739V4.65219C1.23077 4.49076 1.2956 4.33593 1.41101 4.22178C1.52642 4.10763 1.68294 4.0435 1.84615 4.0435H4.30769C4.40996 4.04443 4.51081 4.01981 4.6009 3.97193C4.691 3.92405 4.76741 3.85445 4.82308 3.76959L5.86923 2.21741H10.1308L11.1769 3.76959C11.2326 3.85445 11.309 3.92405 11.3991 3.97193C11.4892 4.01981 11.59 4.04443 11.6923 4.0435H14.1538C14.3171 4.0435 14.4736 4.10763 14.589 4.22178C14.7044 4.33593 14.7692 4.49076 14.7692 4.65219V13.1739ZM8 5.26089C7.33059 5.26089 6.67621 5.45723 6.11961 5.8251C5.56301 6.19296 5.1292 6.71582 4.87302 7.32755C4.61685 7.93929 4.54982 8.61242 4.68042 9.26183C4.81102 9.91125 5.13337 10.5078 5.60672 10.976C6.08006 11.4442 6.68314 11.763 7.33969 11.8922C7.99624 12.0214 8.67678 11.9551 9.29524 11.7017C9.91369 11.4483 10.4423 11.0192 10.8142 10.4687C11.1861 9.91811 11.3846 9.27084 11.3846 8.60871C11.3846 7.72081 11.028 6.86928 10.3933 6.24144C9.75855 5.6136 8.89766 5.26089 8 5.26089ZM8 10.7391C7.57401 10.7391 7.15759 10.6142 6.80339 10.3801C6.44919 10.146 6.17312 9.81327 6.01011 9.42399C5.84709 9.0347 5.80443 8.60634 5.88754 8.19308C5.97065 7.77982 6.17578 7.40021 6.477 7.10227C6.77822 6.80432 7.162 6.60142 7.57981 6.51921C7.99761 6.43701 8.43068 6.4792 8.82424 6.64045C9.2178 6.80169 9.55419 7.07476 9.79086 7.4251C10.0275 7.77545 10.1538 8.18735 10.1538 8.60871C10.1518 9.17312 9.92425 9.71384 9.52076 10.1129C9.11727 10.512 8.57061 10.7371 8 10.7391Z" fill="#3B3C39"/>
</svg>
