<svg width="15" height="14" viewBox="0 0 15 14" fill="none" xmlns="http://www.w3.org/2000/svg">
<path d="M6.1875 0.875H8.8125C8.92853 0.875 9.03981 0.921094 9.12186 1.00314C9.20391 1.08519 9.25 1.19647 9.25 1.3125V2.1875H5.75V1.3125C5.75 1.19647 5.79609 1.08519 5.87814 1.00314C5.96019 0.921094 6.07147 0.875 6.1875 0.875ZM10.125 2.1875V1.3125C10.125 0.964403 9.98672 0.630564 9.74058 0.384422C9.49444 0.138281 9.1606 0 8.8125 0L6.1875 0C5.8394 0 5.50556 0.138281 5.25942 0.384422C5.01328 0.630564 4.875 0.964403 4.875 1.3125V2.1875H2.69275C2.68983 2.18747 2.68692 2.18747 2.684 2.1875H1.8125C1.69647 2.1875 1.58519 2.23359 1.50314 2.31564C1.42109 2.39769 1.375 2.50897 1.375 2.625C1.375 2.74103 1.42109 2.85231 1.50314 2.93436C1.58519 3.01641 1.69647 3.0625 1.8125 3.0625H2.28325L3.02963 12.39C3.06482 12.8285 3.26391 13.2377 3.58724 13.5361C3.91057 13.8345 4.33442 14.0001 4.77438 14H10.2256C10.6656 14.0001 11.0894 13.8345 11.4128 13.5361C11.7361 13.2377 11.9352 12.8285 11.9704 12.39L12.7168 3.0625H13.1875C13.3035 3.0625 13.4148 3.01641 13.4969 2.93436C13.5789 2.85231 13.625 2.74103 13.625 2.625C13.625 2.50897 13.5789 2.39769 13.4969 2.31564C13.4148 2.23359 13.3035 2.1875 13.1875 2.1875H12.3169C12.314 2.18748 12.311 2.18748 12.3081 2.1875H10.125ZM11.8383 3.0625L11.098 12.32C11.0804 12.5393 10.9809 12.7439 10.8192 12.8931C10.6575 13.0422 10.4456 13.125 10.2256 13.125H4.77438C4.5544 13.125 4.34247 13.0422 4.18081 12.8931C4.01914 12.7439 3.9196 12.5393 3.902 12.32L3.16175 3.0625H11.8383ZM5.28713 3.9375C5.40292 3.93081 5.51663 3.97037 5.60326 4.04748C5.68989 4.1246 5.74236 4.23296 5.74913 4.34875L6.18663 11.7863C6.19122 11.9007 6.15076 12.0124 6.07394 12.0973C5.99712 12.1822 5.89005 12.2336 5.77573 12.2405C5.66141 12.2474 5.54896 12.2092 5.46251 12.134C5.37607 12.0589 5.32252 11.9529 5.31337 11.8387L4.875 4.40125C4.87145 4.34377 4.87928 4.28616 4.89804 4.23172C4.9168 4.17727 4.94613 4.12707 4.98433 4.08399C5.02254 4.0409 5.06888 4.00578 5.12069 3.98064C5.1725 3.95551 5.22876 3.94085 5.28625 3.9375H5.28713ZM9.71288 3.9375C9.77036 3.94085 9.82663 3.95551 9.87844 3.98064C9.93025 4.00578 9.97658 4.0409 10.0148 4.08399C10.053 4.12707 10.0823 4.17727 10.1011 4.23172C10.1198 4.28616 10.1277 4.34377 10.1241 4.40125L9.68662 11.8387C9.68429 11.8969 9.67038 11.954 9.64571 12.0067C9.62104 12.0594 9.58611 12.1066 9.54296 12.1457C9.4998 12.1847 9.4493 12.2147 9.3944 12.234C9.3395 12.2533 9.2813 12.2614 9.22322 12.2579C9.16514 12.2544 9.10834 12.2394 9.05614 12.2137C9.00395 12.1879 8.9574 12.1521 8.91924 12.1082C8.88107 12.0642 8.85205 12.0131 8.83387 11.9579C8.8157 11.9026 8.80873 11.8443 8.81338 11.7863L9.25088 4.34875C9.25764 4.23296 9.31011 4.1246 9.39674 4.04748C9.48337 3.97037 9.59708 3.93081 9.71288 3.9375ZM7.5 3.9375C7.61603 3.9375 7.72731 3.98359 7.80936 4.06564C7.89141 4.14769 7.9375 4.25897 7.9375 4.375V11.8125C7.9375 11.9285 7.89141 12.0398 7.80936 12.1219C7.72731 12.2039 7.61603 12.25 7.5 12.25C7.38397 12.25 7.27269 12.2039 7.19064 12.1219C7.10859 12.0398 7.0625 11.9285 7.0625 11.8125V4.375C7.0625 4.25897 7.10859 4.14769 7.19064 4.06564C7.27269 3.98359 7.38397 3.9375 7.5 3.9375Z" fill="#3B3C39"/>
</svg>
