<svg width="16" height="16" viewBox="0 0 16 16" fill="none" xmlns="http://www.w3.org/2000/svg">
<path d="M4.6803 6.01345C3.30632 7.32427 3.69888 12.2946 3.69888 12.2946L12.0409 12.2945V8.4713C12.0409 6.83278 11.7956 6.55968 10.3235 4.92117L10.3234 4.92115C8.85131 3.28262 6.39778 4.37492 4.6803 6.01345Z" fill="#ED4A4A"/>
<path d="M8.34919 6.37832C8.3856 6.2796 8.32895 6.17148 8.27635 6.08686C8.19948 5.96464 8.11856 5.83771 8.04169 5.71549C7.91221 5.50865 7.76249 5.2877 7.54805 5.21719C7.41857 5.17488 7.27696 5.19839 7.14749 5.22659C6.48392 5.37702 5.85272 5.73899 5.34695 6.2608C5.17297 6.43943 5.00303 6.65098 4.94639 6.91893C4.90593 7.11167 4.9302 7.30911 4.97471 7.49715C4.99089 7.56296 5.07586 7.92963 5.1406 7.92493C5.17296 7.92493 5.2984 7.68989 5.33077 7.65698C5.44002 7.53946 5.56544 7.43133 5.69087 7.33261C6.18855 6.92833 6.75905 6.64157 7.35788 6.49585C7.51973 6.45354 7.68562 6.42533 7.85151 6.40653C7.90006 6.39713 8.34109 6.39713 8.34919 6.37832Z" fill="white"/>
<path d="M6.08399 15.0001C5.0866 15.0001 4.10355 14.9761 3.15639 14.9362C2.74021 14.9202 2.23075 14.8963 1.98679 14.497C1.8361 14.2414 1.82892 13.898 1.9796 13.4508C2.19487 12.788 2.51776 12.6602 2.98417 12.5324C3.91698 12.2768 4.9646 12.2689 5.98352 12.2529C6.44993 12.2449 6.88764 12.2449 7.30382 12.213C8.85372 12.1171 10.4323 12.0213 11.9894 11.9334C12.2334 11.9175 12.5419 11.9015 12.8289 12.0532C13.1949 12.2529 13.4388 12.7001 13.4747 13.2192C13.5034 13.6425 13.4029 14.0498 13.3097 14.4091C13.2451 14.6807 12.9796 14.7605 12.4773 14.8244C12.1544 14.8643 11.7096 14.9043 11.1427 14.9282C10.131 14.9682 8.93983 14.9761 8.30838 14.9761C8.07877 14.9761 7.90655 14.9761 7.8348 14.9761C7.23923 14.9921 6.65803 15.0001 6.08399 15.0001ZM12.219 12.5564C12.1473 12.5564 12.0827 12.5564 12.0181 12.5643C10.4682 12.6522 8.8896 12.748 7.3397 12.8439C6.90917 12.8678 6.46428 12.8758 5.9907 12.8838C5.00766 12.8918 3.99591 12.9077 3.12768 13.1393C2.73303 13.2511 2.63975 13.2991 2.52495 13.6584C2.41731 13.9938 2.4532 14.1057 2.47472 14.1296C2.55365 14.2574 2.98418 14.2814 3.19227 14.2893C4.67042 14.3612 6.22749 14.3772 7.82045 14.3373C7.89938 14.3373 8.07159 14.3373 8.30838 14.3373C11.4584 14.3293 12.506 14.2255 12.7931 14.1296C12.8648 13.8421 12.9294 13.5466 12.9079 13.2671C12.8863 12.9716 12.7644 12.7241 12.585 12.6282C12.4773 12.5723 12.3482 12.5564 12.219 12.5564Z" fill="#282924" stroke="#282924" stroke-width="0.2"/>
<path d="M12.1976 12.1648C12.0469 12.1648 11.925 12.037 11.9106 11.8693C11.8819 11.3662 11.8748 10.8551 11.8676 10.36C11.8604 9.60928 11.8532 8.83462 11.7528 8.0999C11.6451 7.30128 11.3079 5.84781 10.2818 5.08114C9.83692 4.75371 9.2844 4.55405 8.62426 4.49815C7.36855 4.39433 6.14155 4.84955 5.34507 5.72802C4.73515 6.39087 4.30462 7.35718 4.10371 8.51517C3.91715 9.56934 3.92433 10.6634 3.94585 11.7815C3.95303 11.9572 3.82386 12.1009 3.666 12.1089H3.65883C3.50097 12.1089 3.37899 11.9732 3.37182 11.7975C3.35029 10.6395 3.34311 9.50544 3.54402 8.38738C3.77363 7.10162 4.26157 6.0235 4.95042 5.26482C5.86888 4.25857 7.2609 3.73947 8.68165 3.85926C9.44225 3.92315 10.0952 4.15475 10.619 4.54607C11.516 5.21691 12.1259 6.43878 12.3411 7.99607C12.4488 8.77871 12.456 9.57732 12.4631 10.352C12.4703 10.8391 12.4703 11.3343 12.5062 11.8214C12.5205 11.9971 12.3985 12.1488 12.2407 12.1648C12.212 12.1648 12.2048 12.1648 12.1976 12.1648Z" fill="#282924" stroke="#282924" stroke-width="0.2"/>
<path d="M6.9955 11.9175C6.9668 11.9175 6.94527 11.9174 6.91656 11.9095C6.21337 11.6938 5.65368 11.015 5.51735 10.2164C5.38101 9.41779 5.67521 8.55528 6.25642 8.06813C6.6726 7.70875 7.18924 7.62889 7.56954 7.8525C7.59824 7.86848 7.62694 7.89243 7.65564 7.9084C8.00006 7.67681 8.38036 7.59695 8.72478 7.69278C9.27729 7.8525 9.69349 8.44349 9.85853 9.32196C9.95181 9.8171 9.95896 10.2164 9.87286 10.5838C9.75805 11.0789 9.47104 11.4782 9.09792 11.6539C8.95441 11.7258 8.78218 11.6459 8.72478 11.4862C8.6602 11.3265 8.73196 11.1348 8.87547 11.0709C9.07639 10.9751 9.2486 10.7275 9.31318 10.432C9.37059 10.1685 9.37057 9.85703 9.29164 9.45772C9.24858 9.22612 9.06202 8.45147 8.57409 8.3157C8.38753 8.2598 8.19381 8.3157 8.0216 8.41153C8.08618 8.55528 8.13638 8.715 8.17944 8.90667C8.29425 9.44972 8.27273 9.93689 8.12205 10.3362C8.00006 10.6556 7.76327 10.8393 7.51213 10.7914C7.38297 10.7674 7.2897 10.6876 7.2323 10.6317C6.90222 10.3202 6.73719 9.80112 6.80177 9.29001C6.84482 8.96257 6.97398 8.65112 7.17489 8.3796C6.98833 8.34765 6.76589 8.44348 6.60085 8.57925C6.19185 8.93064 5.98376 9.53757 6.07704 10.1046C6.17749 10.6636 6.57215 11.1508 7.06726 11.3025C7.21794 11.3504 7.31123 11.5261 7.26817 11.6938C7.23947 11.8216 7.12466 11.9175 6.9955 11.9175ZM7.56954 8.84279C7.46191 9.0105 7.39015 9.18619 7.36862 9.36987C7.33275 9.64938 7.41167 9.93689 7.5767 10.1126C7.58388 10.1046 7.59107 10.0886 7.59107 10.0726C7.69153 9.80112 7.70587 9.45773 7.61976 9.04245C7.60541 8.97057 7.59107 8.90668 7.56954 8.84279Z" fill="#282924" stroke="#282924" stroke-width="0.2"/>
<path d="M2.72605 6.54274C2.67582 6.54274 2.63276 6.52677 2.58971 6.50281L1.14745 5.61634C1.01111 5.5285 0.960878 5.33684 1.03263 5.1851C1.11156 5.03336 1.28378 4.97745 1.42012 5.05732L2.86238 5.94378C2.99871 6.03163 3.04895 6.22329 2.97719 6.37503C2.92696 6.48683 2.82651 6.54274 2.72605 6.54274Z" fill="#282924" stroke="#282924" stroke-width="0.2"/>
<path d="M6.56482 3.49999C6.46436 3.49999 6.3639 3.4441 6.31367 3.3323C6.00513 2.70938 5.86161 2.01458 5.89031 1.30381C5.89749 1.12812 6.02666 0.992349 6.19169 1.00034C6.34955 1.00832 6.47152 1.16007 6.46435 1.33577C6.44282 1.92674 6.5648 2.50972 6.82312 3.02882C6.90205 3.18056 6.85183 3.3802 6.70832 3.46006C6.6581 3.48402 6.61504 3.49999 6.56482 3.49999Z" fill="#282924" stroke="#282924" stroke-width="0.2"/>
<path d="M10.8918 3.61167C10.8631 3.61167 10.8272 3.60366 10.7985 3.59568C10.6478 3.53977 10.5689 3.35611 10.6191 3.1884C10.777 2.67729 11.0568 2.23006 11.4228 1.87069C11.5448 1.75888 11.7241 1.76686 11.8246 1.90262C11.9251 2.03839 11.9179 2.23805 11.7959 2.34985C11.5089 2.62937 11.2864 2.98873 11.1573 3.39602C11.1142 3.53179 11.0066 3.61167 10.8918 3.61167Z" fill="#282924" stroke="#282924" stroke-width="0.2"/>
<path d="M13.3887 7.92435C13.2667 7.92435 13.1519 7.83649 13.1161 7.69274C13.073 7.52503 13.1591 7.34933 13.3098 7.29343L14.6301 6.86219C14.7808 6.81427 14.9386 6.9101 14.9889 7.07781C15.0319 7.24552 14.9458 7.42121 14.7951 7.47712L13.4748 7.90836C13.439 7.92433 13.4174 7.92435 13.3887 7.92435Z" fill="#282924" stroke="#282924" stroke-width="0.2"/>
</svg>
