<svg width="16" height="22" viewBox="0 0 16 22" fill="none" xmlns="http://www.w3.org/2000/svg">
<path d="M8 21.5384C8 21.5384 15.9038 14.0482 15.9038 8.36538C15.9038 6.26917 15.0711 4.2588 13.5888 2.77655C12.1066 1.2943 10.0962 0.461578 8 0.461578C5.90378 0.461578 3.89341 1.2943 2.41116 2.77655C0.928912 4.2588 0.0961914 6.26917 0.0961914 8.36538C0.0961914 14.0482 8 21.5384 8 21.5384ZM8 12.3173C6.95189 12.3173 5.94671 11.9009 5.20558 11.1598C4.46446 10.4187 4.04809 9.41349 4.04809 8.36538C4.04809 7.31727 4.46446 6.31209 5.20558 5.57097C5.94671 4.82984 6.95189 4.41348 8 4.41348C9.04811 4.41348 10.0533 4.82984 10.7944 5.57097C11.5355 6.31209 11.9519 7.31727 11.9519 8.36538C11.9519 9.41349 11.5355 10.4187 10.7944 11.1598C10.0533 11.9009 9.04811 12.3173 8 12.3173Z" fill="#00C987"/>
</svg>
