<svg width="34" height="34" viewBox="0 0 34 34" fill="none" xmlns="http://www.w3.org/2000/svg">
<circle cx="16.65" cy="16.65" r="16.65" fill="#28AA7F"/>
<path d="M24.1708 21.9356C24.1708 22.2521 24.0572 22.5557 23.855 22.7796C23.6529 23.0034 23.3787 23.1291 23.0927 23.1291H10.1561C9.87019 23.1291 9.59598 23.0034 9.39381 22.7796C9.19163 22.5557 9.07805 22.2521 9.07805 21.9356V14.7742C9.07805 14.4577 9.19163 14.1541 9.39381 13.9303C9.59598 13.7064 9.87019 13.5807 10.1561 13.5807H11.4196C12.2769 13.5802 13.0989 13.2028 13.7051 12.5315L14.5998 11.5433C14.8014 11.32 15.0747 11.1943 15.3599 11.1936H17.8868C18.1727 11.1936 18.4469 11.3194 18.649 11.5433L19.5416 12.5315C19.842 12.8642 20.1986 13.1281 20.5912 13.3081C20.9837 13.4881 21.4044 13.5807 21.8293 13.5807H23.0927C23.3787 13.5807 23.6529 13.7064 23.855 13.9303C24.0572 14.1541 24.1708 14.4577 24.1708 14.7742V21.9356ZM10.1561 12.3871C9.58427 12.3871 9.03586 12.6386 8.63151 13.0863C8.22716 13.534 8 14.1411 8 14.7742V21.9356C8 22.5687 8.22716 23.1759 8.63151 23.6235C9.03586 24.0712 9.58427 24.3227 10.1561 24.3227H23.0927C23.6646 24.3227 24.213 24.0712 24.6173 23.6235C25.0217 23.1759 25.2488 22.5687 25.2488 21.9356V14.7742C25.2488 14.1411 25.0217 13.534 24.6173 13.0863C24.213 12.6386 23.6646 12.3871 23.0927 12.3871H21.8293C21.2575 12.387 20.7091 12.1354 20.3049 11.6877L19.4123 10.6994C19.008 10.2517 18.4597 10.0001 17.8879 10H15.3609C14.7892 10.0001 14.2408 10.2517 13.8366 10.6994L12.9439 11.6877C12.5397 12.1354 11.9914 12.387 11.4196 12.3871H10.1561Z" fill="white"/>
<path d="M16.6243 20.742C15.9095 20.742 15.224 20.4277 14.7186 19.8681C14.2131 19.3085 13.9292 18.5495 13.9292 17.7581C13.9292 16.9668 14.2131 16.2078 14.7186 15.6482C15.224 15.0886 15.9095 14.7742 16.6243 14.7742C17.3391 14.7742 18.0246 15.0886 18.5301 15.6482C19.0355 16.2078 19.3195 16.9668 19.3195 17.7581C19.3195 18.5495 19.0355 19.3085 18.5301 19.8681C18.0246 20.4277 17.3391 20.742 16.6243 20.742ZM16.6243 21.9356C17.625 21.9356 18.5848 21.4955 19.2924 20.712C20 19.9286 20.3975 18.8661 20.3975 17.7581C20.3975 16.6502 20 15.5877 19.2924 14.8042C18.5848 14.0208 17.625 13.5807 16.6243 13.5807C15.6236 13.5807 14.6639 14.0208 13.9563 14.8042C13.2487 15.5877 12.8511 16.6502 12.8511 17.7581C12.8511 18.8661 13.2487 19.9286 13.9563 20.712C14.6639 21.4955 15.6236 21.9356 16.6243 21.9356ZM11.2341 15.371C11.2341 15.5293 11.1773 15.6811 11.0762 15.793C10.9751 15.9049 10.838 15.9678 10.695 15.9678C10.5521 15.9678 10.415 15.9049 10.3139 15.793C10.2128 15.6811 10.156 15.5293 10.156 15.371C10.156 15.2127 10.2128 15.061 10.3139 14.949C10.415 14.8371 10.5521 14.7742 10.695 14.7742C10.838 14.7742 10.9751 14.8371 11.0762 14.949C11.1773 15.061 11.2341 15.2127 11.2341 15.371Z" fill="white"/>
</svg>
