<svg width="15" height="15" viewBox="0 0 15 15" fill="none" xmlns="http://www.w3.org/2000/svg">
<path d="M11.5505 0.131569C11.4662 0.0473255 11.352 0 11.2328 0C11.1137 0 10.9994 0.0473255 10.9152 0.131569L9.43517 1.61179L12.7663 4.94342L14.2463 3.46409C14.2881 3.42235 14.3213 3.37276 14.344 3.31817C14.3666 3.26357 14.3783 3.20505 14.3783 3.14594C14.3783 3.08683 14.3666 3.0283 14.344 2.97371C14.3213 2.91912 14.2881 2.86953 14.2463 2.82779L11.5505 0.131569ZM12.131 5.57882L8.79986 2.2472L2.95893 8.089H3.14494C3.2641 8.089 3.37838 8.13635 3.46264 8.22062C3.54691 8.30489 3.59424 8.41919 3.59424 8.53837V8.98774H4.04354C4.16271 8.98774 4.27699 9.03508 4.36125 9.11936C4.44551 9.20363 4.49285 9.31793 4.49285 9.43711V9.88648H4.94215C5.06131 9.88648 5.17559 9.93382 5.25985 10.0181C5.34411 10.1024 5.39145 10.2167 5.39145 10.3358V10.7852H5.84075C5.95992 10.7852 6.0742 10.8326 6.15846 10.9168C6.24272 11.0011 6.29005 11.1154 6.29005 11.2346V11.4206L12.131 5.57882ZM5.42021 12.2906C5.4013 12.2403 5.39156 12.187 5.39145 12.1333V11.684H4.94215C4.82299 11.684 4.7087 11.6366 4.62444 11.5523C4.54018 11.4681 4.49285 11.3538 4.49285 11.2346V10.7852H4.04354C3.92438 10.7852 3.8101 10.7379 3.72584 10.6536C3.64158 10.5693 3.59424 10.455 3.59424 10.3358V9.88648H3.14494C3.02578 9.88648 2.9115 9.83914 2.82724 9.75486C2.74298 9.67059 2.69564 9.55629 2.69564 9.43711V8.98774H2.24634C2.19262 8.98765 2.13935 8.97791 2.08908 8.95898L1.92823 9.11896C1.88541 9.16208 1.85178 9.21345 1.82938 9.26994L0.0321755 13.7636C-0.000507346 13.8453 -0.00850807 13.9348 0.00916519 14.0209C0.0268384 14.1071 0.0694085 14.1862 0.131598 14.2484C0.193787 14.3106 0.27286 14.3532 0.359015 14.3708C0.44517 14.3885 0.534618 14.3805 0.616268 14.3478L5.10929 12.5503C5.16578 12.5279 5.21713 12.4943 5.26025 12.4515L5.42021 12.2906Z" fill="#D2D2D2"/>
</svg>
