<svg width="36" height="36" viewBox="0 0 36 36" fill="none" xmlns="http://www.w3.org/2000/svg">
<g clip-path="url(#clip0_602_30692)">
<path d="M18 33.75C13.8228 33.75 9.81677 32.0906 6.86307 29.1369C3.90937 26.1832 2.25 22.1772 2.25 18C2.25 13.8228 3.90937 9.81677 6.86307 6.86307C9.81677 3.90937 13.8228 2.25 18 2.25C22.1772 2.25 26.1832 3.90937 29.1369 6.86307C32.0906 9.81677 33.75 13.8228 33.75 18C33.75 22.1772 32.0906 26.1832 29.1369 29.1369C26.1832 32.0906 22.1772 33.75 18 33.75ZM18 36C22.7739 36 27.3523 34.1036 30.7279 30.7279C34.1036 27.3523 36 22.7739 36 18C36 13.2261 34.1036 8.64773 30.7279 5.27208C27.3523 1.89642 22.7739 0 18 0C13.2261 0 8.64773 1.89642 5.27208 5.27208C1.89642 8.64773 0 13.2261 0 18C0 22.7739 1.89642 27.3523 5.27208 30.7279C8.64773 34.1036 13.2261 36 18 36Z" fill="#EC6868"/>
<path d="M15.7545 24.75C15.7545 24.4545 15.8127 24.162 15.9258 23.889C16.0388 23.616 16.2046 23.368 16.4135 23.159C16.6224 22.9501 16.8705 22.7844 17.1434 22.6713C17.4164 22.5582 17.709 22.5 18.0045 22.5C18.3 22.5 18.5925 22.5582 18.8655 22.6713C19.1385 22.7844 19.3865 22.9501 19.5955 23.159C19.8044 23.368 19.9701 23.616 20.0832 23.889C20.1963 24.162 20.2545 24.4545 20.2545 24.75C20.2545 25.3468 20.0174 25.9191 19.5955 26.341C19.1735 26.763 18.6012 27 18.0045 27C17.4077 27 16.8355 26.763 16.4135 26.341C15.9915 25.9191 15.7545 25.3468 15.7545 24.75ZM15.975 11.2388C15.945 10.9549 15.9751 10.6679 16.0632 10.3964C16.1513 10.1249 16.2955 9.875 16.4865 9.66284C16.6774 9.45068 16.9108 9.28103 17.1716 9.1649C17.4323 9.04878 17.7146 8.98877 18 8.98877C18.2854 8.98877 18.5677 9.04878 18.8284 9.1649C19.0892 9.28103 19.3226 9.45068 19.5135 9.66284C19.7045 9.875 19.8487 10.1249 19.9368 10.3964C20.0249 10.6679 20.0549 10.9549 20.025 11.2388L19.2375 19.1295C19.211 19.4395 19.0692 19.7283 18.84 19.9387C18.6109 20.1491 18.3111 20.2659 18 20.2659C17.6889 20.2659 17.3891 20.1491 17.1599 19.9387C16.9308 19.7283 16.7889 19.4395 16.7625 19.1295L15.975 11.2388Z" fill="#EC6868"/>
</g>
<defs>
<clipPath id="clip0_602_30692">
<rect width="36" height="36" fill="white"/>
</clipPath>
</defs>
</svg>
