<svg width="49" height="48" viewBox="0 0 49 48" fill="none" xmlns="http://www.w3.org/2000/svg">
<path d="M17.8068 34.8705L16.237 30.0492C15.8782 28.9419 16.394 27.7731 17.4984 27.4143C18.3253 27.1452 19.2251 27.6021 19.4942 28.4318L21.2994 31.7198L21.3527 17.7015C21.277 16.7569 22.0983 16.0505 22.928 16.0561C23.7605 16.0617 24.5706 16.7681 24.5678 17.5978L24.5174 25.6455L24.4837 28.2244L24.5118 24.471C24.5174 23.5992 25.235 22.8929 26.1039 22.8985C26.9757 22.9041 27.6821 23.6217 27.6765 24.4906L27.6484 28.244L27.6372 25.8557C27.6428 24.984 28.3604 24.2776 29.2294 24.2832C30.1012 24.2888 30.8075 25.0064 30.8019 25.8754L30.7599 28.5972L30.8103 27.3918C30.8159 26.5201 31.3037 25.8025 32.1755 25.8081C33.0472 25.8137 33.9554 26.0828 34.0087 28.0982C34.0087 28.0982 34.1516 30.5818 33.9835 32.0394C33.8489 33.1886 33.3415 35.647 31.94 37.2223C29.8797 39.5349 27.7886 40.0422 25.9694 39.9974C23.8138 39.9441 21.4704 39.4087 19.497 37.5363C18.5832 36.6701 17.8068 34.8733 17.8068 34.8733V34.8705Z" stroke="white" stroke-width="2" stroke-linecap="round" stroke-linejoin="round"/>
<path d="M20.1838 9.43519C20.5801 9.43519 20.9014 9.11391 20.9014 8.71759C20.9014 8.32128 20.5801 8 20.1838 8C19.7875 8 19.4662 8.32128 19.4662 8.71759C19.4662 9.11391 19.7875 9.43519 20.1838 9.43519Z" fill="white" stroke="white" stroke-width="2" stroke-miterlimit="10"/>
<path d="M16.2283 12.3111C16.6262 12.3111 16.9487 11.9886 16.9487 11.5907C16.9487 11.1929 16.6262 10.8703 16.2283 10.8703C15.8305 10.8703 15.5079 11.1929 15.5079 11.5907C15.5079 11.9886 15.8305 12.3111 16.2283 12.3111Z" fill="white" stroke="white" stroke-width="2" stroke-miterlimit="10"/>
<path d="M14.7204 16.9587C15.1183 16.9587 15.4408 16.6362 15.4408 16.2383C15.4408 15.8404 15.1183 15.5179 14.7204 15.5179C14.3225 15.5179 14 15.8404 14 16.2383C14 16.6362 14.3225 16.9587 14.7204 16.9587Z" fill="white" stroke="white" stroke-width="2" stroke-miterlimit="10"/>
<path d="M30.5384 16.956C30.9347 16.956 31.256 16.6347 31.256 16.2384C31.256 15.8421 30.9347 15.5208 30.5384 15.5208C30.1421 15.5208 29.8208 15.8421 29.8208 16.2384C29.8208 16.6347 30.1421 16.956 30.5384 16.956Z" fill="white" stroke="white" stroke-width="2" stroke-miterlimit="10"/>
<path d="M16.2283 21.6062C16.6262 21.6062 16.9487 21.2837 16.9487 20.8858C16.9487 20.4879 16.6262 20.1654 16.2283 20.1654C15.8305 20.1654 15.5079 20.4879 15.5079 20.8858C15.5079 21.2837 15.8305 21.6062 16.2283 21.6062Z" fill="white" stroke="white" stroke-width="2" stroke-miterlimit="10"/>
<path d="M29.0277 12.3083C29.424 12.3083 29.7452 11.987 29.7452 11.5907C29.7452 11.1944 29.424 10.8731 29.0277 10.8731C28.6313 10.8731 28.3101 11.1944 28.3101 11.5907C28.3101 11.987 28.6313 12.3083 29.0277 12.3083Z" fill="white" stroke="white" stroke-width="2" stroke-miterlimit="10"/>
<path d="M25.0723 9.43519C25.4686 9.43519 25.7899 9.11391 25.7899 8.71759C25.7899 8.32128 25.4686 8 25.0723 8C24.676 8 24.3547 8.32128 24.3547 8.71759C24.3547 9.11391 24.676 9.43519 25.0723 9.43519Z" fill="white" stroke="white" stroke-width="2" stroke-miterlimit="10"/>
</svg>
