<svg width="36" height="36" viewBox="0 0 36 36" fill="none" xmlns="http://www.w3.org/2000/svg">
<path fill-rule="evenodd" clip-rule="evenodd" d="M11.3286 14.646C11.3773 14.5994 11.4353 14.5625 11.499 14.5373C11.5628 14.5121 11.6312 14.4991 11.7003 14.4991C11.7693 14.4991 11.8377 14.5121 11.9015 14.5373C11.9653 14.5625 12.0232 14.5994 12.072 14.646L18.0003 20.293L23.9286 14.646C23.9774 14.5995 24.0353 14.5626 24.0991 14.5375C24.1629 14.5123 24.2312 14.4994 24.3003 14.4994C24.3693 14.4994 24.4376 14.5123 24.5014 14.5375C24.5652 14.5626 24.6231 14.5995 24.672 14.646C24.7208 14.6925 24.7595 14.7477 24.7859 14.8084C24.8123 14.8691 24.8259 14.9342 24.8259 15C24.8259 15.0657 24.8123 15.1308 24.7859 15.1916C24.7595 15.2523 24.7208 15.3075 24.672 15.354L18.372 21.354C18.3232 21.4006 18.2653 21.4375 18.2015 21.4627C18.1377 21.4879 18.0693 21.5009 18.0003 21.5009C17.9312 21.5009 17.8628 21.4879 17.799 21.4627C17.7353 21.4375 17.6773 21.4006 17.6286 21.354L11.3286 15.354C11.2797 15.3075 11.2409 15.2524 11.2144 15.1916C11.1879 15.1309 11.1743 15.0658 11.1743 15C11.1743 14.9342 11.1879 14.8691 11.2144 14.8084C11.2409 14.7476 11.2797 14.6924 11.3286 14.646Z" fill="#3B3C39"/>
</svg>
