<svg width="48" height="48" viewBox="0 0 48 48" fill="none" xmlns="http://www.w3.org/2000/svg">
<path d="M23.6245 35C24.3538 35 25.0532 34.7103 25.5689 34.1946C26.0846 33.6789 26.3743 32.9795 26.3743 32.2501H20.8746C20.8746 32.9795 21.1643 33.6789 21.68 34.1946C22.1957 34.7103 22.8952 35 23.6245 35ZM23.6245 15.6383L22.5287 15.8597C21.2857 16.1129 20.1684 16.7879 19.3659 17.7703C18.5633 18.7527 18.1249 19.9822 18.1248 21.2508C18.1248 22.1142 17.9405 24.2715 17.4937 26.3957C17.2737 27.4503 16.9767 28.5489 16.5821 29.5003H30.6668C30.2722 28.5489 29.9766 27.4517 29.7553 26.3957C29.3084 24.2715 29.1242 22.1142 29.1242 21.2508C29.1237 19.9825 28.6851 18.7533 27.8827 17.7711C27.0802 16.789 25.963 16.1143 24.7203 15.861L23.6245 15.6383ZM32.1765 29.5003C32.4831 30.1149 32.8378 30.6016 33.2489 30.8752H14C14.4111 30.6016 14.7658 30.1149 15.0724 29.5003C16.3099 27.0254 16.7498 22.4607 16.7498 21.2508C16.7498 17.9234 19.1147 15.1461 22.2564 14.5122C22.2372 14.3211 22.2583 14.128 22.3183 13.9455C22.3784 13.7629 22.476 13.595 22.6049 13.4525C22.7338 13.31 22.8911 13.1962 23.0667 13.1182C23.2423 13.0403 23.4323 13 23.6245 13C23.8166 13 24.0066 13.0403 24.1822 13.1182C24.3579 13.1962 24.5152 13.31 24.6441 13.4525C24.773 13.595 24.8706 13.7629 24.9306 13.9455C24.9906 14.128 25.0117 14.3211 24.9925 14.5122C26.5466 14.8283 27.9436 15.6718 28.9471 16.8998C29.9506 18.1278 30.4989 19.6649 30.4991 21.2508C30.4991 22.4607 30.9391 27.0254 32.1765 29.5003Z" fill="#3B3C39"/>
</svg>
