<svg width="49" height="48" viewBox="0 0 49 48" fill="none" xmlns="http://www.w3.org/2000/svg">
<path d="M24.1936 12.8316L24.1936 12.8317L24.1953 12.8281C24.2075 12.8028 24.2257 12.7829 24.2466 12.7697C24.2675 12.7565 24.2906 12.75 24.3136 12.75C24.3365 12.75 24.3596 12.7565 24.3805 12.7697C24.4014 12.7829 24.4196 12.8028 24.4318 12.8281L24.4318 12.8281L24.4333 12.8312L27.5785 19.2909C27.5787 19.2914 27.579 19.2919 27.5792 19.2924C27.6946 19.5313 27.8662 19.7393 28.0799 19.8977C28.2942 20.0564 28.5442 20.1605 28.8084 20.1999L28.8101 20.2002L35.8574 21.2362L35.8576 21.2362C35.8889 21.2408 35.9074 21.2517 35.921 21.2638C35.9371 21.2782 35.9531 21.3009 35.9628 21.3309C35.9724 21.3609 35.9731 21.39 35.9678 21.4136C35.9633 21.4341 35.953 21.4576 35.9267 21.4835L35.9256 21.4846L30.8336 26.5187L30.8334 26.5189C30.6441 26.7063 30.5034 26.9367 30.4227 27.19C30.3422 27.4429 30.3236 27.7115 30.3685 27.973C30.3686 27.9733 30.3686 27.9737 30.3687 27.9741L31.5688 35.0794C31.5688 35.0797 31.5689 35.0801 31.5689 35.0804C31.5734 35.1086 31.57 35.1373 31.5595 35.1631C31.549 35.1892 31.532 35.2104 31.5119 35.2252C31.4918 35.2399 31.4691 35.248 31.4464 35.2497C31.4239 35.2513 31.401 35.2467 31.3799 35.2357C31.3797 35.2356 31.3795 35.2355 31.3793 35.2354L25.0783 31.877L25.0767 31.8762C24.8425 31.752 24.5815 31.6869 24.316 31.6869C24.0506 31.6869 23.7896 31.752 23.5554 31.8762L23.5538 31.877L17.2556 35.2339C17.2349 35.2443 17.2125 35.2485 17.1906 35.2468C17.1679 35.245 17.1454 35.2369 17.1254 35.2222C17.1054 35.2074 17.0885 35.1863 17.078 35.1604C17.0677 35.1349 17.0642 35.1066 17.0684 35.0787C17.0685 35.0782 17.0686 35.0776 17.0687 35.077L18.2677 27.9776C18.2679 27.9764 18.2681 27.9753 18.2683 27.9741C18.3139 27.7141 18.2966 27.4468 18.2179 27.1948C18.1388 26.9416 17.9999 26.7107 17.8121 26.5225L17.8121 26.5224L17.8074 26.5177L12.6983 21.4863C12.698 21.486 12.6977 21.4857 12.6975 21.4855C12.6795 21.4673 12.6658 21.4435 12.6592 21.416C12.6524 21.3882 12.6535 21.3589 12.6621 21.3318C12.6708 21.3047 12.6863 21.282 12.7055 21.2654C12.7244 21.2492 12.7462 21.2393 12.7683 21.2356L19.8121 20.2002L19.8138 20.1999C20.078 20.1605 20.328 20.0564 20.5423 19.8977C20.7559 19.7393 20.9274 19.5315 21.0428 19.2926C21.0431 19.292 21.0434 19.2915 21.0437 19.2909L24.1936 12.8316Z" fill="#00C987" stroke="#00C987" stroke-width="1.5"/>
</svg>
