<svg width="19" height="19" viewBox="0 0 19 19" fill="none" xmlns="http://www.w3.org/2000/svg">
<g clip-path="url(#clip0_602_30863)">
<circle cx="7" cy="7.25" r="5.5" fill="#28AA7F"/>
<path d="M18.3253 2.87003C18.4073 2.94009 18.4645 3.03483 18.4883 3.14009C18.5121 3.24535 18.5012 3.35548 18.4573 3.45403C16.9273 6.88403 13.7143 11.624 11.3623 14.094C10.703 14.785 9.88997 15.3106 8.98926 15.628C8.97126 15.855 8.92926 16.166 8.82926 16.496C8.62826 17.155 8.16226 17.975 7.12126 18.236C6.11309 18.4761 5.06828 18.5209 4.04326 18.368C3.85266 18.3379 3.66474 18.2928 3.48126 18.233C3.31151 18.1814 3.1533 18.0975 3.01526 17.986C2.92423 17.9086 2.85409 17.8096 2.81126 17.698C2.75818 17.5549 2.75961 17.3972 2.81526 17.255C2.91026 17.01 3.13126 16.875 3.27626 16.803C3.67026 16.606 3.90126 16.35 4.14326 15.977C4.23826 15.833 4.32726 15.68 4.43026 15.505L4.54726 15.307C4.69826 15.052 4.87326 14.767 5.09326 14.459C5.62126 13.72 6.29426 13.534 6.83926 13.563C6.96526 13.57 7.08226 13.588 7.18726 13.611C7.24926 13.439 7.32926 13.231 7.42526 13.003C7.68626 12.384 8.08326 11.584 8.61226 10.934C10.7883 8.26403 14.7923 4.72803 17.7293 2.83003C17.8197 2.77167 17.9265 2.74404 18.0339 2.75124C18.1413 2.75845 18.2435 2.80011 18.3253 2.87003ZM7.20526 14.662C7.07257 14.6043 6.93073 14.5705 6.78626 14.562C6.54026 14.549 6.21326 14.612 5.90726 15.041C5.71026 15.316 5.55226 15.573 5.40726 15.818L5.30226 15.995C5.19626 16.176 5.08926 16.357 4.98226 16.523C4.77974 16.8512 4.52272 17.1423 4.22226 17.384C4.91226 17.496 5.95826 17.495 6.87926 17.264C7.43826 17.125 7.72226 16.695 7.87226 16.204C7.94467 15.9601 7.98698 15.7082 7.99826 15.454L7.20526 14.662ZM8.64526 14.688C8.76526 14.648 8.92226 14.588 9.10326 14.505C9.67933 14.2378 10.2 13.8646 10.6383 13.405C12.5383 11.409 15.0503 7.83503 16.6903 4.77403C14.1003 6.70103 11.1243 9.43403 9.38826 11.566C8.94626 12.109 8.59326 12.809 8.34626 13.392C8.22526 13.68 8.13226 13.932 8.07126 14.112L8.64526 14.688ZM3.67226 17.728L3.67926 17.723C3.67711 17.7247 3.67476 17.727 3.67226 17.728Z" fill="#28AA7F"/>
<path d="M9.10329 14.505C8.92229 14.588 8.76529 14.648 8.64529 14.688L8.07129 14.112C8.13229 13.932 8.22529 13.68 8.34629 13.392C8.59329 12.809 8.94629 12.109 9.38829 11.566C11.1243 9.43405 14.1003 6.70105 16.6903 4.77405C15.0503 7.83505 12.5383 11.409 10.6383 13.405C10.2001 13.8646 9.67935 14.2378 9.10329 14.505Z" fill="white"/>
<path d="M9.10329 14.505C8.92229 14.588 8.76529 14.648 8.64529 14.688L8.07129 14.112C8.13229 13.932 8.22529 13.68 8.34629 13.392C8.59329 12.809 8.94629 12.109 9.38829 11.566C11.1243 9.43405 14.1003 6.70105 16.6903 4.77405C15.0503 7.83505 12.5383 11.409 10.6383 13.405C10.2001 13.8646 9.67935 14.2378 9.10329 14.505Z" fill="white"/>
<path d="M3.57593 9.75L5.4436 4.44727H6.61548L8.49048 9.75H7.47241L7.0293 8.43896H5.03345L4.59399 9.75H3.57593ZM6.77295 7.66992L6.05151 5.53125H6.00757L5.28979 7.66992H6.77295ZM10.0725 9.75H9.12036V4.44727H10.0725V9.75Z" fill="white"/>
</g>
<defs>
<clipPath id="clip0_602_30863">
<rect width="18" height="18" fill="white" transform="translate(0.5 0.75)"/>
</clipPath>
</defs>
</svg>
