<svg width="18" height="18" viewBox="0 0 18 18" fill="none" xmlns="http://www.w3.org/2000/svg">
<path d="M5.39755 12.716C5.39755 13.9088 4.1885 14.875 2.69877 14.875C1.20905 14.875 0 13.9088 0 12.716C0 11.5231 1.20905 10.557 2.69877 10.557C4.1885 10.557 5.39755 11.5231 5.39755 12.716Z" fill="#702DFF"/>
<path fill-rule="evenodd" clip-rule="evenodd" d="M5.39738 1.92088V12.716H4.31787V1.92088H5.39738Z" fill="#702DFF"/>
<path d="M4.31787 1.72656C4.31802 1.4771 4.40457 1.23538 4.5628 1.04252C4.72103 0.849651 4.94117 0.717539 5.1858 0.668644L8.42432 0.0209383C8.58088 -0.0103531 8.74242 -0.00653083 8.89732 0.0321298C9.05222 0.0707904 9.19662 0.143327 9.3201 0.244513C9.44359 0.345699 9.5431 0.473017 9.61146 0.617292C9.67982 0.761567 9.71532 0.919208 9.71542 1.07886V3.00038L4.31787 4.07989V1.72656Z" fill="#702DFF"/>
<circle cx="12.5" cy="11.5" r="5.5" fill="#702DFF"/>
<path d="M9.07593 14L10.9436 8.69727H12.1155L13.9905 14H12.9724L12.5293 12.689H10.5334L10.094 14H9.07593ZM12.2729 11.9199L11.5515 9.78125H11.5076L10.7898 11.9199H12.2729ZM15.5725 14H14.6204V8.69727H15.5725V14Z" fill="white"/>
</svg>
