<svg width="36" height="36" viewBox="0 0 36 36" fill="none" xmlns="http://www.w3.org/2000/svg">
<path fill-rule="evenodd" clip-rule="evenodd" d="M14.6459 24.6716C14.5994 24.6228 14.5624 24.5649 14.5372 24.5011C14.512 24.4373 14.499 24.3689 14.499 24.2999C14.499 24.2308 14.512 24.1624 14.5372 24.0987C14.5624 24.0349 14.5994 23.9769 14.6459 23.9282L20.2929 17.9999L14.6459 12.0716C14.5994 12.0228 14.5626 11.9648 14.5374 11.901C14.5122 11.8373 14.4993 11.7689 14.4993 11.6999C14.4993 11.6308 14.5122 11.5625 14.5374 11.4987C14.5626 11.4349 14.5994 11.377 14.6459 11.3282C14.6924 11.2794 14.7476 11.2406 14.8083 11.2142C14.8691 11.1878 14.9342 11.1742 14.9999 11.1742C15.0657 11.1742 15.1308 11.1878 15.1915 11.2142C15.2522 11.2406 15.3074 11.2794 15.3539 11.3282L21.3539 17.6282C21.4005 17.6769 21.4374 17.7349 21.4626 17.7987C21.4878 17.8624 21.5008 17.9308 21.5008 17.9999C21.5008 18.0689 21.4878 18.1373 21.4626 18.2011C21.4374 18.2649 21.4005 18.3228 21.3539 18.3716L15.3539 24.6716C15.3075 24.7205 15.2523 24.7592 15.1916 24.7857C15.1308 24.8122 15.0657 24.8258 14.9999 24.8258C14.9341 24.8258 14.869 24.8122 14.8083 24.7857C14.7475 24.7592 14.6924 24.7205 14.6459 24.6716V24.6716Z" fill="#3B3C39"/>
</svg>
