<svg width="49" height="48" viewBox="0 0 49 48" fill="none" xmlns="http://www.w3.org/2000/svg">
<path d="M15.969 17.281C15.8992 17.2112 15.8439 17.1285 15.8062 17.0373C15.7684 16.9462 15.749 16.8486 15.749 16.75C15.749 16.6514 15.7684 16.5537 15.8062 16.4626C15.8439 16.3715 15.8992 16.2887 15.969 16.219C16.0387 16.1492 16.1215 16.0939 16.2126 16.0562C16.3037 16.0184 16.4014 15.999 16.5 15.999C16.5986 15.999 16.6962 16.0184 16.7873 16.0562C16.8785 16.0939 16.9612 16.1492 17.031 16.219L24.75 23.9395L32.469 16.219C32.5387 16.1492 32.6215 16.0939 32.7126 16.0562C32.8037 16.0184 32.9014 15.999 33 15.999C33.0986 15.999 33.1962 16.0184 33.2873 16.0562C33.3785 16.0939 33.4612 16.1492 33.531 16.219C33.6007 16.2887 33.656 16.3715 33.6938 16.4626C33.7315 16.5537 33.7509 16.6514 33.7509 16.75C33.7509 16.8486 33.7315 16.9462 33.6938 17.0373C33.656 17.1285 33.6007 17.2112 33.531 17.281L25.8105 25L33.531 32.719C33.6007 32.7887 33.656 32.8715 33.6938 32.9626C33.7315 33.0537 33.7509 33.1514 33.7509 33.25C33.7509 33.3486 33.7315 33.4462 33.6938 33.5373C33.656 33.6285 33.6007 33.7112 33.531 33.781C33.4612 33.8507 33.3785 33.906 33.2873 33.9438C33.1962 33.9815 33.0986 34.0009 33 34.0009C32.9014 34.0009 32.8037 33.9815 32.7126 33.9438C32.6215 33.906 32.5387 33.8507 32.469 33.781L24.75 26.0605L17.031 33.781C16.9612 33.8507 16.8785 33.906 16.7873 33.9438C16.6962 33.9815 16.5986 34.0009 16.5 34.0009C16.4014 34.0009 16.3037 33.9815 16.2126 33.9438C16.1215 33.906 16.0387 33.8507 15.969 33.781C15.8992 33.7112 15.8439 33.6285 15.8062 33.5373C15.7684 33.4462 15.749 33.3486 15.749 33.25C15.749 33.1514 15.7684 33.0537 15.8062 32.9626C15.8439 32.8715 15.8992 32.7887 15.969 32.719L23.6895 25L15.969 17.281Z" fill="#3B3C39"/>
</svg>
