<svg width="48" height="48" viewBox="0 0 48 48" fill="none" xmlns="http://www.w3.org/2000/svg">
<g clip-path="url(#clip0_1238_6635)">
<path d="M24.0004 19.5352C23.4142 19.5352 22.8339 19.6506 22.2923 19.8749C21.7508 20.0992 21.2588 20.428 20.8444 20.8424C20.4299 21.2569 20.1012 21.7489 19.8769 22.2904C19.6526 22.8319 19.5371 23.4123 19.5371 23.9984C19.5371 24.5845 19.6526 25.1649 19.8769 25.7064C20.1012 26.2479 20.4299 26.7399 20.8444 27.1544C21.2588 27.5689 21.7508 27.8976 22.2923 28.1219C22.8339 28.3462 23.4142 28.4617 24.0004 28.4617C25.1841 28.4617 26.3193 27.9914 27.1564 27.1544C27.9934 26.3174 28.4636 25.1821 28.4636 23.9984C28.4636 22.8147 27.9934 21.6794 27.1564 20.8424C26.3193 20.0054 25.1841 19.5352 24.0004 19.5352ZM20.9121 23.9984C20.9121 23.1794 21.2375 22.3938 21.8166 21.8147C22.3958 21.2355 23.1813 20.9102 24.0004 20.9102C24.8194 20.9102 25.6049 21.2355 26.1841 21.8147C26.7632 22.3938 27.0886 23.1794 27.0886 23.9984C27.0886 24.8175 26.7632 25.603 26.1841 26.1821C25.6049 26.7613 24.8194 27.0867 24.0004 27.0867C23.1813 27.0867 22.3958 26.7613 21.8166 26.1821C21.2375 25.603 20.9121 24.8175 20.9121 23.9984Z" fill="#3B3C39"/>
<path d="M26.4688 14.8459C25.7442 12.3847 22.2544 12.3847 21.5298 14.8459L21.4006 15.2846C21.35 15.4564 21.2615 15.6147 21.1418 15.7479C21.0221 15.8811 20.874 15.9858 20.7086 16.0544C20.5431 16.1229 20.3644 16.1536 20.1855 16.1441C20.0067 16.1346 19.8322 16.0852 19.6749 15.9996L19.2734 15.7796C17.0184 14.5531 14.5531 17.0198 15.7809 19.2734L15.9996 19.6749C16.0852 19.8322 16.1346 20.0067 16.1441 20.1855C16.1536 20.3644 16.1229 20.5431 16.0544 20.7086C15.9858 20.874 15.8811 21.0221 15.7479 21.1418C15.6147 21.2615 15.4564 21.35 15.2846 21.4006L14.8459 21.5298C12.3847 22.2544 12.3847 25.7442 14.8459 26.4688L15.2846 26.5981C15.4564 26.6487 15.6147 26.7371 15.7479 26.8568C15.8811 26.9766 15.9858 27.1246 16.0544 27.29C16.1229 27.4555 16.1536 27.6342 16.1441 27.8131C16.1346 27.9919 16.0852 28.1664 15.9996 28.3237L15.7796 28.7252C14.5531 30.9802 17.0184 33.4469 19.2734 32.2177L19.6749 31.9991C19.8322 31.9134 20.0067 31.864 20.1855 31.8545C20.3644 31.845 20.5431 31.8757 20.7086 31.9443C20.874 32.0128 21.0221 32.1175 21.1418 32.2507C21.2615 32.3839 21.35 32.5423 21.4006 32.7141L21.5298 33.1527C22.2544 35.6139 25.7442 35.6139 26.4688 33.1527L26.5981 32.7141C26.6487 32.5423 26.7371 32.3839 26.8568 32.2507C26.9766 32.1175 27.1246 32.0128 27.29 31.9443C27.4555 31.8757 27.6342 31.845 27.8131 31.8545C27.9919 31.864 28.1664 31.9134 28.3237 31.9991L28.7252 32.2191C30.9802 33.4469 33.4469 30.9788 32.2177 28.7252L31.9991 28.3237C31.9134 28.1664 31.864 27.9919 31.8545 27.8131C31.845 27.6342 31.8757 27.4555 31.9443 27.29C32.0128 27.1246 32.1175 26.9766 32.2507 26.8568C32.3839 26.7371 32.5423 26.6487 32.7141 26.5981L33.1527 26.4688C35.6139 25.7442 35.6139 22.2544 33.1527 21.5298L32.7141 21.4006C32.5423 21.35 32.3839 21.2615 32.2507 21.1418C32.1175 21.0221 32.0128 20.874 31.9443 20.7086C31.8757 20.5431 31.845 20.3644 31.8545 20.1855C31.864 20.0067 31.9134 19.8322 31.9991 19.6749L32.2191 19.2734C33.4469 17.0184 30.9788 14.5531 28.7252 15.7809L28.3237 15.9996C28.1664 16.0852 27.9919 16.1346 27.8131 16.1441C27.6342 16.1536 27.4555 16.1229 27.29 16.0544C27.1246 15.9858 26.9766 15.8811 26.8568 15.7479C26.7371 15.6147 26.6487 15.4564 26.5981 15.2846L26.4688 14.8459ZM22.8484 15.2351C23.1867 14.0869 24.8119 14.0869 25.1502 15.2351L25.2794 15.6737C25.3881 16.0423 25.5779 16.3819 25.8348 16.6677C26.0918 16.9534 26.4095 17.178 26.7645 17.325C27.1196 17.472 27.5031 17.5377 27.8868 17.5173C28.2706 17.4968 28.6449 17.3907 28.9823 17.2068L29.3824 16.9868C30.4329 16.4162 31.5824 17.5643 31.0104 18.6162L30.7918 19.0177C30.6082 19.3551 30.5023 19.7294 30.4821 20.1131C30.4619 20.4968 30.5277 20.8801 30.6749 21.235C30.822 21.5899 31.0467 21.9074 31.3324 22.1642C31.6182 22.421 31.9578 22.6106 32.3263 22.7192L32.7636 22.8484C33.9117 23.1867 33.9117 24.8119 32.7636 25.1502L32.3249 25.2794C31.9563 25.3881 31.6167 25.5779 31.3309 25.8348C31.0452 26.0918 30.8206 26.4095 30.6736 26.7645C30.5266 27.1196 30.4609 27.5031 30.4814 27.8868C30.5018 28.2706 30.6079 28.6449 30.7918 28.9823L31.0118 29.3824C31.5824 30.4329 30.4343 31.5824 29.3824 31.0104L28.9823 30.7918C28.6448 30.6079 28.2704 30.5019 27.8866 30.4815C27.5027 30.4611 27.1192 30.5269 26.7641 30.6741C26.4091 30.8212 26.0914 31.046 25.8345 31.3319C25.5776 31.6178 25.3879 31.9576 25.2794 32.3263L25.1502 32.7636C24.8119 33.9117 23.1867 33.9117 22.8484 32.7636L22.7192 32.3249C22.6105 31.9565 22.4207 31.6171 22.1639 31.3315C21.907 31.0459 21.5895 30.8214 21.2346 30.6744C20.8797 30.5274 20.4964 30.4616 20.1128 30.482C19.7292 30.5023 19.3551 30.6081 19.0177 30.7918L18.6162 31.0118C17.5657 31.5824 16.4162 30.4343 16.9882 29.3824L17.2068 28.9823C17.391 28.6448 17.4973 28.2704 17.5179 27.8865C17.5385 27.5026 17.4728 27.1189 17.3258 26.7637C17.1788 26.4084 16.9541 26.0906 16.6682 25.8335C16.3823 25.5765 16.0425 25.3867 15.6737 25.2781L15.2351 25.1488C14.0869 24.8106 14.0869 23.1853 15.2351 22.8471L15.6737 22.7178C16.0419 22.6091 16.3812 22.4194 16.6666 22.1626C16.9521 21.9058 17.1765 21.5884 17.3235 21.2337C17.4705 20.879 17.5363 20.4959 17.5161 20.1125C17.4959 19.7291 17.3902 19.355 17.2068 19.0177L16.9868 18.6162C16.4162 17.5657 17.5643 16.4162 18.6162 16.9882L19.0177 17.2068C19.3551 17.3905 19.7292 17.4964 20.1128 17.5167C20.4964 17.537 20.8797 17.4713 21.2346 17.3243C21.5895 17.1773 21.907 16.9528 22.1639 16.6672C22.4207 16.3816 22.6105 16.0421 22.7192 15.6737L22.8484 15.2351Z" fill="#3B3C39"/>
</g>
<defs>
<clipPath id="clip0_1238_6635">
<rect width="22" height="22" fill="white" transform="translate(13 13)"/>
</clipPath>
</defs>
</svg>
