<svg width="38" height="36" viewBox="0 0 38 36" fill="none" xmlns="http://www.w3.org/2000/svg">
<path d="M19 11C15.13 11 12 14.13 12 18C12 21.87 15.13 25 19 25C22.87 25 26 21.87 26 18C26 14.13 22.87 11 19 11ZM22.35 20.65C22.55 20.85 22.55 21.16 22.35 21.36C22.15 21.56 21.84 21.56 21.64 21.36L18.99 18.71L16.34 21.36C16.14 21.56 15.83 21.56 15.63 21.36C15.43 21.16 15.43 20.85 15.63 20.65L18.28 18L15.63 15.35C15.43 15.15 15.43 14.84 15.63 14.64C15.83 14.44 16.14 14.44 16.34 14.64L18.99 17.29L21.64 14.64C21.84 14.44 22.15 14.44 22.35 14.64C22.55 14.84 22.55 15.15 22.35 15.35L19.7 18L22.35 20.65Z" fill="#D2D2D2"/>
</svg>
