<svg width="37" height="36" viewBox="0 0 37 36" fill="none" xmlns="http://www.w3.org/2000/svg">
<g clip-path="url(#clip0_198_11072)">
<path d="M22.6682 18.2971L21.3822 13.3559C21.2393 12.8219 20.7504 12.4459 20.2014 12.4459H16.2755C15.719 12.4459 15.2377 12.8219 15.0948 13.3559L13.8087 18.2971H15.4031L15.9822 26.3443C16.0198 26.8557 16.4485 27.2544 16.9599 27.2544H19.4794C19.9908 27.2544 20.4195 26.8557 20.4571 26.3443L21.0738 18.2895H22.6758L22.6682 18.2971Z" stroke="#3B3C39" stroke-width="1.8" stroke-linejoin="round"/>
<path d="M18.2386 9.83615C19.6425 9.83615 20.7806 8.69804 20.7806 7.29411C20.7806 5.89018 19.6425 4.75208 18.2386 4.75208C16.8346 4.75208 15.6965 5.89018 15.6965 7.29411C15.6965 8.69804 16.8346 9.83615 18.2386 9.83615Z" stroke="#3B3C39" stroke-width="1.8" stroke-miterlimit="10"/>
<path d="M23.6535 23.5842C27.5794 24.2536 30.2718 25.6224 30.2718 27.2017C30.2718 29.4354 24.8869 31.2479 18.2385 31.2479C11.5901 31.2479 6.2052 29.4354 6.2052 27.2017C6.2052 25.5998 8.98038 24.2084 13.004 23.5541" stroke="#3B3C39" stroke-width="1.8" stroke-linecap="round" stroke-linejoin="round"/>
</g>
<defs>
<clipPath id="clip0_198_11072">
<rect width="25.5708" height="28" fill="white" transform="translate(5.45312 4)"/>
</clipPath>
</defs>
</svg>
