<svg width="36" height="46" viewBox="0 0 36 46" fill="none" xmlns="http://www.w3.org/2000/svg">
<path d="M17.82 41L16.8097 42.1087L17.82 43.0293L18.8303 42.1087L17.82 41ZM17.82 41C18.8303 42.1087 18.8306 42.1085 18.8309 42.1082L18.8318 42.1074L18.8346 42.1048L18.8444 42.0959L18.8795 42.0635C18.9098 42.0356 18.9538 41.9949 19.0105 41.9419C19.1238 41.836 19.288 41.6812 19.4959 41.4815C19.9116 41.0822 20.5024 40.5029 21.21 39.7766C22.6235 38.3257 24.5117 36.2793 26.4038 33.9011C28.2922 31.5275 30.2087 28.7936 31.6589 25.9683C33.1 23.1606 34.14 20.1492 34.14 17.25C34.14 13.0534 32.4057 9.04123 29.339 6.09248C26.2743 3.14565 22.1298 1.5 17.82 1.5C13.5102 1.5 9.36572 3.14565 6.30101 6.09248C3.23431 9.04123 1.5 13.0534 1.5 17.25C1.5 20.1492 2.54 23.1606 3.98115 25.9683C5.43134 28.7936 7.34777 31.5275 9.23619 33.9011C11.1283 36.2793 13.0165 38.3257 14.43 39.7766C15.1376 40.5029 15.7284 41.0822 16.1441 41.4815C16.352 41.6812 16.5162 41.836 16.6295 41.9419C16.6862 41.9949 16.7302 42.0356 16.7605 42.0635L16.7956 42.0959L16.8054 42.1048L16.8082 42.1074L16.8091 42.1082C16.8094 42.1085 16.8097 42.1087 17.82 41Z" fill="#00C987" stroke="#00C987" stroke-width="3"/>
<path d="M31.5 17.6739C31.5 27.1315 17.82 39.5969 17.82 39.5969C17.82 39.5969 4.14 27.1315 4.14 17.6739C4.14 14.1853 5.58128 10.8395 8.14678 8.37269C10.7123 5.90587 14.1918 4.52002 17.82 4.52002C21.4482 4.52002 24.9277 5.90587 27.4932 8.37269C30.0587 10.8395 31.5 14.1853 31.5 17.6739Z" fill="white"/>
<path d="M17.82 24.375C19.7853 24.375 21.67 23.6243 23.0597 22.2881C24.4493 20.9519 25.23 19.1397 25.23 17.25C25.23 15.3603 24.4493 13.5481 23.0597 12.2119C21.67 10.8757 19.7853 10.125 17.82 10.125C15.8547 10.125 13.97 10.8757 12.5803 12.2119C11.1907 13.5481 10.41 15.3603 10.41 17.25C10.41 19.1397 11.1907 20.9519 12.5803 22.2881C13.97 23.6243 15.8547 24.375 17.82 24.375Z" fill="#00C987"/>
</svg>
