<svg width="19" height="19" viewBox="0 0 19 19" fill="none" xmlns="http://www.w3.org/2000/svg">
<g clip-path="url(#clip0_588_35703)">
<circle cx="7" cy="7" r="5.5" fill="#702DFF"/>
<path d="M18.3253 2.62003C18.4073 2.69009 18.4645 2.78483 18.4883 2.89009C18.5121 2.99535 18.5012 3.10548 18.4573 3.20403C16.9273 6.63403 13.7143 11.374 11.3623 13.844C10.703 14.535 9.88997 15.0606 8.98926 15.378C8.97126 15.605 8.92926 15.916 8.82926 16.246C8.62826 16.905 8.16226 17.725 7.12126 17.986C6.11309 18.2261 5.06828 18.2709 4.04326 18.118C3.85266 18.0879 3.66474 18.0428 3.48126 17.983C3.31151 17.9314 3.1533 17.8475 3.01526 17.736C2.92423 17.6586 2.85409 17.5596 2.81126 17.448C2.75818 17.3049 2.75961 17.1472 2.81526 17.005C2.91026 16.76 3.13126 16.625 3.27626 16.553C3.67026 16.356 3.90126 16.1 4.14326 15.727C4.23826 15.583 4.32726 15.43 4.43026 15.255L4.54726 15.057C4.69826 14.802 4.87326 14.517 5.09326 14.209C5.62126 13.47 6.29426 13.284 6.83926 13.313C6.96526 13.32 7.08226 13.338 7.18726 13.361C7.24926 13.189 7.32926 12.981 7.42526 12.753C7.68626 12.134 8.08326 11.334 8.61226 10.684C10.7883 8.01403 14.7923 4.47803 17.7293 2.58003C17.8197 2.52167 17.9265 2.49404 18.0339 2.50124C18.1413 2.50845 18.2435 2.55011 18.3253 2.62003ZM7.20526 14.412C7.07257 14.3543 6.93073 14.3205 6.78626 14.312C6.54026 14.299 6.21326 14.362 5.90726 14.791C5.71026 15.066 5.55226 15.323 5.40726 15.568L5.30226 15.745C5.19626 15.926 5.08926 16.107 4.98226 16.273C4.77974 16.6012 4.52272 16.8923 4.22226 17.134C4.91226 17.246 5.95826 17.245 6.87926 17.014C7.43826 16.875 7.72226 16.445 7.87226 15.954C7.94467 15.7101 7.98698 15.4582 7.99826 15.204L7.20526 14.412ZM8.64526 14.438C8.76526 14.398 8.92226 14.338 9.10326 14.255C9.67933 13.9878 10.2 13.6146 10.6383 13.155C12.5383 11.159 15.0503 7.58503 16.6903 4.52403C14.1003 6.45103 11.1243 9.18403 9.38826 11.316C8.94626 11.859 8.59326 12.559 8.34626 13.142C8.22526 13.43 8.13226 13.682 8.07126 13.862L8.64526 14.438ZM3.67226 17.478L3.67926 17.473C3.67711 17.4747 3.67476 17.477 3.67226 17.478Z" fill="#702DFF"/>
<path d="M9.10329 14.255C8.92229 14.338 8.76529 14.398 8.64529 14.438L8.07129 13.862C8.13229 13.682 8.22529 13.43 8.34629 13.142C8.59329 12.559 8.94629 11.859 9.38829 11.316C11.1243 9.18405 14.1003 6.45105 16.6903 4.52405C15.0503 7.58505 12.5383 11.159 10.6383 13.155C10.2001 13.6146 9.67935 13.9878 9.10329 14.255Z" fill="white"/>
<path d="M9.10329 14.255C8.92229 14.338 8.76529 14.398 8.64529 14.438L8.07129 13.862C8.13229 13.682 8.22529 13.43 8.34629 13.142C8.59329 12.559 8.94629 11.859 9.38829 11.316C11.1243 9.18405 14.1003 6.45105 16.6903 4.52405C15.0503 7.58505 12.5383 11.159 10.6383 13.155C10.2001 13.6146 9.67935 13.9878 9.10329 14.255Z" fill="white"/>
<path d="M3.57593 9.5L5.4436 4.19727H6.61548L8.49048 9.5H7.47241L7.0293 8.18896H5.03345L4.59399 9.5H3.57593ZM6.77295 7.41992L6.05151 5.28125H6.00757L5.28979 7.41992H6.77295ZM10.0725 9.5H9.12036V4.19727H10.0725V9.5Z" fill="white"/>
</g>
<defs>
<clipPath id="clip0_588_35703">
<rect width="18" height="18" fill="white" transform="translate(0.5 0.5)"/>
</clipPath>
</defs>
</svg>
