<svg width="24" height="24" viewBox="0 0 24 24" fill="none" xmlns="http://www.w3.org/2000/svg">
<path d="M18.2759 6.50475C18.369 6.40979 18.4801 6.33436 18.6027 6.28286C18.7252 6.23136 18.8569 6.20483 18.9898 6.20483C19.1228 6.20483 19.2544 6.23136 19.377 6.28286C19.4996 6.33436 19.6106 6.40979 19.7037 6.50475C20.0937 6.89885 20.0992 7.53568 19.7173 7.9366L11.654 17.4686C11.5624 17.5691 11.4513 17.6499 11.3275 17.7061C11.2037 17.7622 11.0697 17.7924 10.9337 17.795C10.7978 17.7975 10.6627 17.7723 10.5369 17.7209C10.411 17.6695 10.2969 17.5929 10.2017 17.4959L5.29522 12.524C5.106 12.331 5 12.0715 5 11.8012C5 11.531 5.106 11.2715 5.29522 11.0785C5.38829 10.9835 5.49936 10.9081 5.62194 10.8566C5.74452 10.8051 5.87614 10.7786 6.0091 10.7786C6.14206 10.7786 6.27368 10.8051 6.39626 10.8566C6.51884 10.9081 6.62991 10.9835 6.72298 11.0785L10.8849 15.2963L18.2487 6.53475C18.2571 6.52421 18.2663 6.51419 18.2759 6.50475Z" fill="#702DFF"/>
</svg>
