<svg width="61" height="48" viewBox="0 0 61 48" fill="none" xmlns="http://www.w3.org/2000/svg">
<path d="M22.553 37.1398L20.6754 31.373C20.2463 30.0486 20.8632 28.6505 22.1842 28.2213C23.1733 27.8995 24.2495 28.446 24.5714 29.4384L26.7306 33.3712L26.7943 16.6039C26.7038 15.474 27.6861 14.6291 28.6786 14.6358C29.6743 14.6425 30.6433 15.4875 30.6399 16.4799L30.5796 26.1057L30.5394 29.1903L30.5729 24.7009C30.5796 23.6582 31.4379 22.8133 32.4773 22.82C33.52 22.8267 34.3649 23.685 34.3582 24.7244L34.3247 29.2138L34.3112 26.3572C34.3179 25.3145 35.1763 24.4696 36.2156 24.4763C37.2583 24.483 38.1032 25.3413 38.0965 26.3807L38.0462 29.6362L38.1066 28.1945C38.1133 27.1518 38.6967 26.2935 39.7394 26.3002C40.7821 26.3069 41.8684 26.6288 41.9321 29.0394C41.9321 29.0394 42.1031 32.01 41.902 33.7534C41.741 35.1281 41.1342 38.0685 39.4578 39.9528C36.9935 42.7188 34.4923 43.3257 32.3163 43.272C29.738 43.2083 26.9351 42.5679 24.5747 40.3283C23.4817 39.2923 22.553 37.1431 22.553 37.1431V37.1398Z" stroke="#00C987" stroke-width="2" stroke-linecap="round" stroke-linejoin="round"/>
<path d="M25.3962 6.71663C25.8702 6.71663 26.2545 6.33235 26.2545 5.85831C26.2545 5.38428 25.8702 5 25.3962 5C24.9221 5 24.5378 5.38428 24.5378 5.85831C24.5378 6.33235 24.9221 6.71663 25.3962 6.71663Z" fill="#00C987" stroke="#00C987" stroke-width="2" stroke-miterlimit="10"/>
<path d="M20.6654 10.1565C21.1413 10.1565 21.527 9.77072 21.527 9.29483C21.527 8.81895 21.1413 8.43317 20.6654 8.43317C20.1895 8.43317 19.8037 8.81895 19.8037 9.29483C19.8037 9.77072 20.1895 10.1565 20.6654 10.1565Z" fill="#00C987" stroke="#00C987" stroke-width="2" stroke-miterlimit="10"/>
<path d="M18.8617 15.7155C19.3376 15.7155 19.7233 15.3297 19.7233 14.8539C19.7233 14.378 19.3376 13.9922 18.8617 13.9922C18.3858 13.9922 18 14.378 18 14.8539C18 15.3297 18.3858 15.7155 18.8617 15.7155Z" fill="#00C987" stroke="#00C987" stroke-width="2" stroke-miterlimit="10"/>
<path d="M37.7814 15.7122C38.2554 15.7122 38.6397 15.3279 38.6397 14.8539C38.6397 14.3798 38.2554 13.9955 37.7814 13.9955C37.3074 13.9955 36.9231 14.3798 36.9231 14.8539C36.9231 15.3279 37.3074 15.7122 37.7814 15.7122Z" fill="#00C987" stroke="#00C987" stroke-width="2" stroke-miterlimit="10"/>
<path d="M20.6654 21.2744C21.1413 21.2744 21.527 20.8886 21.527 20.4127C21.527 19.9368 21.1413 19.551 20.6654 19.551C20.1895 19.551 19.8037 19.9368 19.8037 20.4127C19.8037 20.8886 20.1895 21.2744 20.6654 21.2744Z" fill="#00C987" stroke="#00C987" stroke-width="2" stroke-miterlimit="10"/>
<path d="M35.9743 10.1532C36.4483 10.1532 36.8326 9.76893 36.8326 9.2949C36.8326 8.82086 36.4483 8.43658 35.9743 8.43658C35.5002 8.43658 35.116 8.82086 35.116 9.2949C35.116 9.76893 35.5002 10.1532 35.9743 10.1532Z" fill="#00C987" stroke="#00C987" stroke-width="2" stroke-miterlimit="10"/>
<path d="M31.2436 6.71663C31.7176 6.71663 32.1019 6.33235 32.1019 5.85831C32.1019 5.38428 31.7176 5 31.2436 5C30.7695 5 30.3853 5.38428 30.3853 5.85831C30.3853 6.33235 30.7695 6.71663 31.2436 6.71663Z" fill="#00C987" stroke="#00C987" stroke-width="2" stroke-miterlimit="10"/>
</svg>
