<svg width="20" height="19" viewBox="0 0 20 19" fill="none" xmlns="http://www.w3.org/2000/svg">
<path d="M3.3475 13.6175C3.47725 13.7477 3.57667 13.905 3.63868 14.0781C3.70069 14.2511 3.72376 14.4357 3.70625 14.6187C3.6184 15.4657 3.45185 16.3027 3.20875 17.1187C4.9525 16.715 6.0175 16.2475 6.50125 16.0025C6.77563 15.8635 7.09161 15.8306 7.38875 15.91C8.24054 16.1371 9.11846 16.2514 10 16.25C14.995 16.25 18.75 12.7413 18.75 8.75C18.75 4.76 14.995 1.25 10 1.25C5.005 1.25 1.25 4.76 1.25 8.75C1.25 10.585 2.02125 12.2875 3.3475 13.6175ZM2.73125 18.4987C2.43509 18.5575 2.13796 18.6112 1.84 18.66C1.59 18.7 1.4 18.44 1.49875 18.2075C1.60974 17.9457 1.71147 17.6802 1.80375 17.4112L1.8075 17.3987C2.1175 16.4987 2.37 15.4638 2.4625 14.5C0.92875 12.9625 0 10.95 0 8.75C0 3.9175 4.4775 0 10 0C15.5225 0 20 3.9175 20 8.75C20 13.5825 15.5225 17.5 10 17.5C9.00956 17.5013 8.02323 17.3727 7.06625 17.1175C6.41625 17.4463 5.0175 18.045 2.73125 18.4987Z" fill="#ABABAB"/>
<path d="M5 5.625C5 5.45924 5.06585 5.30027 5.18306 5.18306C5.30027 5.06585 5.45924 5 5.625 5H14.375C14.5408 5 14.6997 5.06585 14.8169 5.18306C14.9342 5.30027 15 5.45924 15 5.625C15 5.79076 14.9342 5.94973 14.8169 6.06694C14.6997 6.18415 14.5408 6.25 14.375 6.25H5.625C5.45924 6.25 5.30027 6.18415 5.18306 6.06694C5.06585 5.94973 5 5.79076 5 5.625ZM5 8.75C5 8.58424 5.06585 8.42527 5.18306 8.30806C5.30027 8.19085 5.45924 8.125 5.625 8.125H14.375C14.5408 8.125 14.6997 8.19085 14.8169 8.30806C14.9342 8.42527 15 8.58424 15 8.75C15 8.91576 14.9342 9.07473 14.8169 9.19194C14.6997 9.30915 14.5408 9.375 14.375 9.375H5.625C5.45924 9.375 5.30027 9.30915 5.18306 9.19194C5.06585 9.07473 5 8.91576 5 8.75ZM5 11.875C5 11.7092 5.06585 11.5503 5.18306 11.4331C5.30027 11.3158 5.45924 11.25 5.625 11.25H10.625C10.7908 11.25 10.9497 11.3158 11.0669 11.4331C11.1842 11.5503 11.25 11.7092 11.25 11.875C11.25 12.0408 11.1842 12.1997 11.0669 12.3169C10.9497 12.4342 10.7908 12.5 10.625 12.5H5.625C5.45924 12.5 5.30027 12.4342 5.18306 12.3169C5.06585 12.1997 5 12.0408 5 11.875Z" fill="#ABABAB"/>
</svg>
