<svg width="88" height="28" viewBox="0 0 88 28" fill="none" xmlns="http://www.w3.org/2000/svg">
<path d="M18.3232 23.2993C18.2352 24.3066 21.0711 26.3212 21.7526 25.6862C22.9397 24.5913 23.7971 17.2555 24.1928 16.8833C24.6545 16.4234 26.7869 15.9635 26.8089 16.2701C26.8528 16.7957 25.8636 22.3139 26.3032 23.365C26.677 24.2409 29.8206 24.1971 30.5241 23.4526C30.8758 23.0803 30.8758 16.2482 30.678 13.3358C30.4801 10.4234 29.7327 5.4088 29.5128 5.21172C29.0732 4.79567 26.8748 4.81756 26.2373 5.54019C25.7976 6.04384 27.6662 12.1533 27.3365 12.7884C27.1386 13.1606 24.5665 13.8833 24.2368 13.2701C23.6652 12.2409 23.7971 6.17523 23.3354 5.54019C22.8738 4.90515 21.0272 4.92705 20.4116 5.54019C20.0379 5.91245 20.5215 11.2117 20.0379 15.3285C19.6642 18.4161 18.4111 22.4453 18.3232 23.2993Z" fill="#111111"/>
<path d="M31.6892 3.72257C31.6892 2.86856 34.9868 1.75177 35.6683 2.16783C36.3498 2.58389 36.8774 8.21162 36.4817 10.708C36.0859 13.2043 35.6243 20.2773 35.1846 21.1313C34.7449 21.9853 33.2061 21.8321 32.9643 21.7664C32.1948 21.5474 33.1621 14.1459 32.9203 12.0437C32.7225 10.3576 31.7112 5.75907 31.6672 3.70068L31.6892 3.72257Z" fill="#111111"/>
<path d="M58.5752 12.3504C58.4433 12.9854 57.0363 15.2628 56.2449 14.5621C55.4535 13.8613 54.4423 11.4745 53.7168 12.0876C52.5297 13.0949 54.3104 21.0876 54.2444 22.5986C54.1785 24.1095 53.5409 27.4161 50.0675 26.8029C46.5941 26.2117 42.681 23.8905 42.725 20.781C42.747 19.0073 44.9673 18.1314 45.6708 18.0876C46.66 18.0219 49.3421 21.4818 50.2214 21C51.1007 20.5183 48.9244 12.7008 49.474 10.2263C50.0235 7.75185 52.2219 6.83214 54.9699 7.83944C56.5747 8.43068 59.1468 9.39419 58.5752 12.3504Z" fill="#111111"/>
<path d="M58.5971 4.29196C59.3665 3.10948 67.0608 1.48904 68.16 2.21167C69.2592 2.9343 68.6216 6.08758 68.094 6.74451C67.5664 7.40145 65.7638 6.24087 65.1922 7.09488C64.6206 7.94889 63.8512 11.2993 63.4995 13.0949C63.1477 14.8905 63.3676 19.1606 62.9719 20.2993C62.5761 21.4379 58.6191 22.6642 57.5859 22.2482C56.5526 21.8321 61.8946 8.73722 61.2132 7.94889C60.5317 7.16057 57.6958 8.56203 57.2341 7.83941C56.7725 7.11678 57.8716 5.40875 58.5971 4.29196Z" fill="#111111"/>
<path d="M66.1156 8.89051C66.6432 7.62043 73.0184 6.85401 73.4361 7.31386C73.8538 7.77372 74.0956 10.8394 72.9964 11.6934C71.8973 12.5474 69.1493 12.0219 68.9295 12.5693C68.7096 13.1168 68.5557 14.781 69.1933 14.9562C69.8308 15.1314 71.8313 14.2555 72.3369 14.4963C73.2163 14.9124 73.1943 16.9927 72.7986 17.6277C72.4029 18.2628 69.2372 17.6277 68.7976 18.2628C68.3579 18.8978 68.3579 21.4161 68.9295 21.5474C69.501 21.6788 75.3487 19.4015 76.8656 20.2336C78.3824 21.0657 78.1406 25.2263 77.2173 25.6642C76.294 26.1022 70.1825 27.5912 65.7638 26.4088C64.225 25.9927 64.9284 18.3942 65.522 16.6423C66.1156 14.8905 65.3901 10.6423 66.1156 8.86861V8.89051Z" fill="#111111"/>
<path d="M39.977 3.61316C39.3395 4.70805 38.1744 12.0438 37.8446 16.2263C37.7347 17.5402 37.5588 23.6278 38.0644 24.1752C38.3942 24.5475 40.021 24.5256 40.2188 24.0657C40.5486 23.3212 41.4939 17.8905 41.5598 17.2774C41.6258 16.6643 43.1866 16.7737 44.5496 16.292C45.9126 15.8102 47.8911 14.8248 48.023 9.74454C48.1549 4.66425 40.8564 2.146 39.999 3.61316H39.977ZM43.8901 11.2993C43.4065 12.2409 41.8236 13.1606 41.8456 12.5913C41.8676 12.0219 41.9775 10.3139 42.3073 9.219C42.5931 8.29929 44.3737 10.3577 43.8901 11.2993Z" fill="#111111"/>
<path d="M86.7362 15.7883C85.8129 14.8905 81.7019 10.9708 81.5041 10.2043C81.3062 9.41602 86.2306 4.05106 84.34 1.16055C82.4494 -1.72996 76.3819 1.6204 75.9422 2.75909C75.3487 4.24814 74.4913 17.4963 74.909 18.1313C75.3267 18.7664 77.4811 19.2919 77.9427 18.7226C78.4264 18.1532 78.2285 13.8175 78.888 13.4452C79.9213 12.854 84.5818 20.9343 85.2633 20.4306C85.9448 19.927 87.6595 16.6642 86.7362 15.7664V15.7883ZM78.6462 7.88317C78.5143 7.57661 78.5363 6.35033 78.6682 5.6058C78.8441 4.68609 79.8993 4.6204 80.0312 5.32113C80.1631 6.02186 78.7781 8.21164 78.6462 7.90507V7.88317Z" fill="#111111"/>
<g opacity="0.8">
<path d="M16.8062 4.5328C16.5204 4.29192 16.2126 4.07295 15.8609 3.89776C16.0807 3.21893 16.0807 0.459808 15.729 0.416012C15.0915 0.350318 13.6186 2.5182 13.3328 3.21893C12.8711 3.17514 12.3875 3.17514 11.8599 3.21893C10.7827 3.28463 8.43042 3.83207 7.22132 4.46711C6.45189 4.88317 5.72643 5.45251 5.04494 6.13134C5.02295 6.13134 4.97899 6.08755 4.93502 6.06565C4.25353 5.64959 1.4616 4.27003 1.04391 4.5766C0.714159 4.81747 2.1431 7.68609 3.06641 8.84667C1.79136 11.2773 1.02193 14.3211 1.13185 17.6277C1.28573 22.5985 3.19831 26.2335 6.01222 26.8686C7.57306 27.2408 9.17786 26.8248 10.7607 25.6861C14.388 23.0365 16.6523 17.4744 16.7183 16.6642C16.8062 15.635 15.5311 14.4744 14.322 13.8613C13.3767 13.3795 12.4974 13.2262 12.1676 13.5109C11.7499 13.8613 11.2663 14.9781 10.7607 16.1605C9.94729 18.0219 9.13389 19.927 8.14463 20.0802C7.83686 20.124 7.52909 19.9927 7.2433 19.6861C6.38594 18.7445 6.12214 17.1897 6.49586 15.2627C7.04545 12.3722 8.82612 9.5255 10.6508 8.62769C12.959 7.48901 13.9703 9.17514 14.6298 10.3138C14.8716 10.708 15.0695 11.0802 15.2893 11.2116C15.4432 11.2992 15.9488 11.2335 16.6083 10.927C17.4437 10.5109 18.345 9.78828 18.433 9.06565C18.5649 8.01455 18.367 5.89046 16.8282 4.5547L16.8062 4.5328Z" fill="#009966"/>
</g>
</svg>
