<svg width="24" height="24" viewBox="0 0 24 24" fill="none" xmlns="http://www.w3.org/2000/svg">
<rect width="24" height="24" rx="12" fill="#702DFF"/>
<path d="M14.4248 11.8285L13.7207 9.12324C13.6425 8.83088 13.3748 8.625 13.0742 8.625H10.9248C10.6201 8.625 10.3566 8.83088 10.2783 9.12324L9.57422 11.8285H10.4472L10.7642 16.2344C10.7848 16.5144 11.0195 16.7326 11.2995 16.7326H12.6789C12.9589 16.7326 13.1936 16.5144 13.2142 16.2344L13.5519 11.8244H14.4289L14.4248 11.8285Z" stroke="white" stroke-width="1.2" stroke-linejoin="round"/>
<path d="M11.9992 7.19369C12.7678 7.19369 13.391 6.57057 13.391 5.80192C13.391 5.03327 12.7678 4.41016 11.9992 4.41016C11.2305 4.41016 10.6074 5.03327 10.6074 5.80192C10.6074 6.57057 11.2305 7.19369 11.9992 7.19369Z" stroke="white" stroke-width="1.2" stroke-miterlimit="10"/>
<path d="M14.9651 14.7235C17.1145 15.09 18.5886 15.8394 18.5886 16.7041C18.5886 17.927 15.6403 18.9194 12.0003 18.9194C8.36034 18.9194 5.41211 17.927 5.41211 16.7041C5.41211 15.827 6.93152 15.0653 9.13446 14.707" stroke="white" stroke-width="1.2" stroke-linecap="round" stroke-linejoin="round"/>
</svg>
