<svg width="18" height="18" viewBox="0 0 18 18" fill="none" xmlns="http://www.w3.org/2000/svg">
<g clip-path="url(#clip0_1238_6243)">
<path d="M11.4248 8.82853L10.7207 6.12324C10.6425 5.83088 10.3748 5.625 10.0742 5.625H7.92481C7.6201 5.625 7.35657 5.83088 7.27834 6.12324L6.57422 8.82853H7.44716L7.76422 13.2344C7.78481 13.5144 8.01951 13.7326 8.29951 13.7326H9.67892C9.95892 13.7326 10.1936 13.5144 10.2142 13.2344L10.5519 8.82441H11.4289L11.4248 8.82853Z" stroke="#3B3C39" stroke-width="1.2" stroke-linejoin="round"/>
<path d="M8.99919 4.19369C9.76784 4.19369 10.391 3.57057 10.391 2.80192C10.391 2.03327 9.76784 1.41016 8.99919 1.41016C8.23054 1.41016 7.60742 2.03327 7.60742 2.80192C7.60742 3.57057 8.23054 4.19369 8.99919 4.19369Z" stroke="#3B3C39" stroke-width="1.2" stroke-miterlimit="10"/>
<path d="M11.9651 11.7235C14.1145 12.09 15.5886 12.8394 15.5886 13.7041C15.5886 14.927 12.6403 15.9194 9.00034 15.9194C5.36034 15.9194 2.41211 14.927 2.41211 13.7041C2.41211 12.827 3.93152 12.0653 6.13446 11.707" stroke="#3B3C39" stroke-width="1.2" stroke-linecap="round" stroke-linejoin="round"/>
</g>
<defs>
<clipPath id="clip0_1238_6243">
<rect width="14" height="15.33" fill="white" transform="translate(2 1)"/>
</clipPath>
</defs>
</svg>
